<?xml version="1.0" encoding="UTF-8"?>
<svg version="1.1" xmlns="http://www.w3.org/2000/svg" width="3574" height="1022">
<path d="M0 0 C0.75185894 -0.00382555 1.50371788 -0.00765109 2.27836043 -0.01159257 C4.77537335 -0.02183812 7.27215268 -0.01794665 9.7691803 -0.01396179 C11.56854463 -0.01831292 13.3679071 -0.0234974 15.16726685 -0.02944946 C20.03916385 -0.04280681 24.91098311 -0.04342183 29.78289485 -0.04088616 C33.85590726 -0.03981435 37.92890407 -0.04470514 42.00191313 -0.04949158 C51.61314953 -0.06057524 61.22434685 -0.06103044 70.83558655 -0.05497742 C80.73879092 -0.04893629 90.64185326 -0.06125482 100.5450334 -0.08254749 C109.05992376 -0.10017957 117.57476898 -0.10616235 126.08967692 -0.10290974 C131.16984933 -0.10109949 136.24992039 -0.10370743 141.33007622 -0.11762428 C146.10802118 -0.13022434 150.88574508 -0.12823791 155.66368675 -0.11521339 C157.41276373 -0.11285291 159.16185637 -0.11556332 160.91091537 -0.12383652 C180.757881 -0.2109143 180.757881 -0.2109143 187.26942444 4.97944641 C187.71286194 5.56725891 188.15629944 6.15507141 188.61317444 6.76069641 C189.07723694 7.34850891 189.54129944 7.93632141 190.01942444 8.54194641 C193.06229688 13.3236031 192.77176933 18.82624253 192.11317444 24.26069641 C190.61481028 28.9153737 188.55127095 33.23780686 186.42567444 37.63569641 C185.83173964 38.90467958 185.24006965 40.17472494 184.65052795 41.445755 C183.42640015 44.08031375 182.19276216 46.71008537 180.95204163 49.33686829 C178.06081555 55.47896908 175.31371221 61.68511581 172.55067444 67.88569641 C171.4663704 70.30511579 170.38173626 72.72438725 169.29676819 75.14350891 C166.2224206 82.01008155 163.16544741 88.88428823 160.11317444 95.76069641 C153.29547775 111.12015666 146.41582423 126.4517379 139.53211975 141.7816925 C133.03025924 156.26200429 126.55460357 170.75341118 120.11317444 185.26069641 C112.6333897 202.10654979 105.10069793 218.92807853 97.54969788 235.74214172 C90.69678282 251.00448334 83.8759339 266.28047372 77.08726501 281.57148743 C72.00154515 293.0259235 66.88955177 304.46816412 61.75672913 315.90156555 C58.27524718 323.65963627 54.81246502 331.42576383 51.36317444 339.19819641 C46.48624062 350.18584879 41.58570863 361.16280314 36.67567444 372.13569641 C36.31176605 372.948974 35.94785767 373.76225159 35.57292175 374.60017395 C31.90477643 382.79710353 28.23437389 390.99301666 24.55848694 399.18647766 C24.28308578 399.80035339 24.00768463 400.41422913 23.72393799 401.04670715 C23.45334061 401.64986755 23.18274323 402.25302795 22.90394592 402.87446594 C18.28875587 413.16183492 13.68760573 423.45513269 9.11317444 433.76069641 C5.06845607 442.87288988 1.00629976 451.97702485 -3.07432556 461.07319641 C-3.60630554 462.25905334 -4.13828552 463.44491028 -4.68638611 464.66670227 C-4.95825241 465.27271774 -5.23011871 465.87873322 -5.51022339 466.50311279 C-5.78661148 467.11920914 -6.06299957 467.73530548 -6.34776306 468.37007141 C-6.76905235 469.30914085 -6.76905235 469.30914085 -7.19885254 470.2671814 C-10.86978471 478.45068036 -14.53554578 486.6364931 -18.19932556 494.82319641 C-18.55853088 495.62578888 -18.91773621 496.42838135 -19.28782654 497.2552948 C-24.81561933 509.60849375 -30.31555387 521.97386599 -35.80433655 534.34443665 C-41.59073877 547.38184838 -47.43593185 560.39233855 -53.29655457 573.39653015 C-58.43751018 584.80445016 -63.55202821 596.22318785 -68.62437439 607.66181946 C-72.70609414 616.86422933 -76.81579862 626.05395904 -80.94248962 635.23628235 C-83.49513143 640.91717672 -86.04132788 646.60049439 -88.55935669 652.29682922 C-89.73622473 654.95823877 -90.91712179 657.61785204 -92.09828186 660.27735901 C-92.65861706 661.54205647 -93.21699873 662.80762156 -93.77326965 664.07411194 C-101.12123252 680.79961105 -101.12123252 680.79961105 -108.88682556 685.26069641 C-112.39973883 686.4316675 -115.56238572 686.4088223 -119.21707153 686.40786743 C-119.96944747 686.41154412 -120.7218234 686.41522081 -121.49699861 686.41900891 C-124.02562943 686.43004816 -126.55421916 686.43389001 -129.08287048 686.43769836 C-130.8929711 686.44396287 -132.70307042 686.45060966 -134.51316833 686.45761108 C-140.46453454 686.47865658 -146.41590102 686.48901437 -152.36729431 686.49897766 C-154.4160698 686.50302512 -156.46484516 686.50714204 -158.51362038 686.51132774 C-168.13942186 686.53038099 -177.76521568 686.54461138 -187.3910324 686.55293971 C-198.50132184 686.56271112 -209.611412 686.58902762 -220.72163123 686.62944061 C-229.30943317 686.659606 -237.89717801 686.67440902 -246.4850319 686.67772073 C-251.61392289 686.68007086 -256.74260102 686.68902657 -261.87143517 686.7141819 C-266.69858624 686.73747475 -271.52538448 686.74169093 -276.35257721 686.73142052 C-278.12143185 686.73092533 -279.89030393 686.73724069 -281.6591053 686.75097656 C-299.94326427 686.88498603 -299.94326427 686.88498603 -306.76182556 680.50679016 C-310.29844591 674.82118175 -310.73191464 669.84958811 -309.88682556 663.26069641 C-308.48285331 658.69998257 -306.52686546 654.45578854 -304.51182556 650.13569641 C-303.93172581 648.85191079 -303.35383095 647.56712699 -302.77793884 646.28144836 C-301.51634114 643.47018411 -300.2446146 640.66379273 -298.96690369 637.8598175 C-296.73536596 632.9459438 -294.56491623 628.00606577 -292.40245056 623.06147766 C-292.02221237 622.19204529 -291.64197418 621.32261292 -291.25021362 620.42683411 C-290.47626168 618.65653128 -289.70245346 616.88616562 -288.92878723 615.11573792 C-287.00012564 610.70703712 -285.06263933 606.30222291 -283.12510681 601.89741516 C-282.75527176 601.05642273 -282.38543671 600.2154303 -282.00439453 599.34895325 C-281.29291176 597.73111314 -280.58138112 596.11329408 -279.86979675 594.49549866 C-278.97610297 592.46367016 -278.08255117 590.4317793 -277.18907166 588.39985657 C-273.21893316 579.37167686 -269.24546148 570.34496765 -265.26963806 561.31929016 C-259.98077727 549.30985217 -254.71012813 537.29256845 -249.4535675 525.26896667 C-244.27642595 513.42769893 -239.08394074 501.59320995 -233.88682556 489.76069641 C-228.54471542 477.5978551 -223.20809072 465.43267237 -217.88682556 453.26069641 C-210.74117099 436.91650784 -203.56937407 420.58382383 -196.39620972 404.25169373 C-193.63838918 397.97248753 -190.88149932 391.69287334 -188.12510681 385.41304016 C-175.06385488 355.65640502 -175.06385488 355.65640502 -169.38682556 342.76069641 C-167.55308227 338.59421004 -165.71979938 334.42752136 -163.88682556 330.26069641 C-163.5699176 329.54029175 -163.25300964 328.81988708 -162.92649841 328.07765198 C-160.28690911 322.07676641 -157.64874244 316.07525678 -155.01182556 310.07319641 C-154.62210571 309.18614014 -154.23238586 308.29908386 -153.83085632 307.38514709 C-148.8591538 296.06571258 -143.91438555 284.73523884 -139.01182556 273.38569641 C-134.65038934 263.29210607 -130.22365896 253.23021962 -125.74546814 243.1879425 C-121.19586291 232.9771766 -116.6923147 222.7464817 -112.19932556 212.51069641 C-111.81595032 211.63736664 -111.43257507 210.76403687 -111.0375824 209.86424255 C-105.13478906 196.41413876 -99.26375055 182.95037577 -93.40333557 169.48176575 C-87.38019037 155.64328298 -81.28937508 141.83538492 -75.18009949 128.03474426 C-69.52238332 115.25193404 -63.90189791 102.45367633 -58.32432556 89.63569641 C-50.54051499 71.75141331 -42.74187895 53.87385822 -34.86508179 36.0302887 C-32.80168324 31.35215631 -30.76330122 26.6643213 -28.74229431 21.96772766 C-27.87432338 19.98182381 -27.00588866 17.99612255 -26.13682556 16.01069641 C-25.77919128 15.16047913 -25.42155701 14.31026184 -25.05308533 13.4342804 C-22.7766807 8.29787491 -20.65838504 5.326481 -15.88682556 2.26069641 C-10.51297385 0.64734894 -5.61759347 -0.03092634 0 0 Z " fill="#E63C2A" transform="translate(310.88682556152344,-0.2606964111328125)"/>
<path d="M0 0 C0.78489549 -0.00367669 1.56979099 -0.00735338 2.3784712 -0.01114148 C5.02309803 -0.02220313 7.66768561 -0.02602637 10.31233215 -0.02983093 C12.20272446 -0.03609377 14.09311554 -0.0427404 15.98350525 -0.04974365 C21.13038261 -0.0671714 26.27725066 -0.07771049 31.42415023 -0.08594918 C34.63872868 -0.09109613 37.85330423 -0.09717203 41.06788063 -0.10346031 C51.12243417 -0.1225183 61.17698035 -0.13674751 71.23154849 -0.14507228 C82.84331859 -0.15484456 94.45489806 -0.18116136 106.06660098 -0.22157317 C115.03737876 -0.25172378 124.00810187 -0.2665402 132.97892934 -0.26985329 C138.33863066 -0.2722052 143.69812847 -0.28118383 149.0577755 -0.30631447 C154.10159061 -0.32958131 159.14506803 -0.33383394 164.18892288 -0.32355309 C166.03882406 -0.32305726 167.88874177 -0.32939145 169.73859215 -0.34310913 C172.26753867 -0.36081115 174.79527111 -0.35373068 177.32421875 -0.34057617 C178.05341764 -0.35154542 178.78261653 -0.36251466 179.53391236 -0.37381631 C185.66408852 -0.29702443 189.61417668 1.72890629 194.25691223 5.64717102 C198.42574673 11.03717926 198.20846396 16.575715 197.47956848 23.14717102 C196.3101375 27.16500421 194.61304657 30.82374716 192.79206848 34.58467102 C191.77115429 36.79557118 190.75032427 39.00651022 189.72956848 41.21748352 C189.19331848 42.35733704 188.65706848 43.49719055 188.10456848 44.67158508 C185.42585783 50.40087066 182.86741149 56.18339076 180.29206848 61.95967102 C179.4752466 63.77935295 178.65841351 65.59902997 177.84082031 67.41836548 C173.69323898 76.64923958 169.58553971 85.89773237 165.47956848 95.14717102 C158.00015869 111.99318944 150.46709089 128.81455554 142.91609192 145.62861633 C136.06317686 160.89095795 129.24232794 176.16694833 122.45365906 191.45796204 C117.37086666 202.90580466 112.26201766 214.34155073 107.13191223 225.76826477 C103.56334538 233.7200589 100.01514991 241.68066001 96.47956848 249.64717102 C92.26848034 259.13449258 88.03925577 268.61346964 83.79206848 278.08467102 C83.51605804 278.70017822 83.24004761 279.31568542 82.95567322 279.94984436 C79.97107004 286.60433327 76.98122366 293.25643117 73.98396301 299.90522766 C67.4868477 314.31930843 61.07938547 328.77329384 54.67048645 343.22676086 C46.61230672 361.39921551 38.51005441 379.55074722 30.34074402 397.67353821 C24.91485631 409.71198553 19.52266487 421.76478967 14.16706848 433.83467102 C6.7934317 450.45227676 -0.63601248 467.04413925 -8.08390808 483.62861633 C-14.52660243 497.97734258 -20.94682381 512.33567616 -27.33293152 526.70967102 C-27.66731232 527.4622821 -28.00169312 528.21489319 -28.34620667 528.99031067 C-31.7615772 536.67825161 -35.17471454 544.36718115 -38.58535767 552.05722046 C-45.46667335 567.57122859 -52.37227402 583.07289167 -59.37446594 598.53276062 C-63.80959436 608.32714103 -68.19849358 618.14132384 -72.56007385 627.96867371 C-73.57402507 630.25211351 -74.58960393 632.53482272 -75.6056366 634.81733704 C-78.53677364 641.40538549 -81.46101632 647.99578255 -84.33691406 654.60816956 C-85.51077101 657.30365355 -86.69326063 659.99530022 -87.87709045 662.68641663 C-88.68395487 664.52989065 -89.47848724 666.37874692 -90.27262878 668.22773743 C-93.87702929 676.40326782 -97.03503915 681.56340955 -105.52043152 685.14717102 C-108.19052807 685.4284778 -110.62288505 685.56172595 -113.28736877 685.5415802 C-114.05047509 685.5476713 -114.8135814 685.55376241 -115.59981215 685.56003809 C-118.14690986 685.57663529 -120.69350586 685.57189706 -123.24064636 685.5670929 C-125.0708976 685.57443515 -126.90114421 685.58302184 -128.73138428 685.59275818 C-133.69632487 685.61496673 -138.66109946 685.61790518 -143.6260829 685.61601067 C-147.77365771 685.61589093 -151.92119739 685.62445632 -156.06876242 685.63278818 C-165.85541035 685.65202 -175.64197299 685.65490691 -185.42863464 685.64814758 C-195.51822456 685.64150714 -205.60744886 685.66437187 -215.69696462 685.70146132 C-224.36552548 685.73216876 -233.0339688 685.74351719 -241.70258296 685.7396245 C-246.87728236 685.73755804 -252.05169725 685.74302041 -257.22634506 685.76751709 C-262.09384721 685.78979876 -266.96075543 685.7878945 -271.82826042 685.76758957 C-273.61162338 685.76418202 -275.39502643 685.76925765 -277.17833519 685.78357315 C-293.42073861 685.90493176 -293.42073861 685.90493176 -299.15836525 681.58550262 C-303.75936018 676.72688703 -304.77999344 672.07539161 -304.72654724 665.56010437 C-304.4006004 661.744345 -303.07081975 658.6172202 -301.49699402 655.15888977 C-301.02418503 654.06806343 -301.02418503 654.06806343 -300.54182434 652.9552002 C-299.5503857 650.67857408 -298.53664456 648.41282935 -297.52043152 646.14717102 C-296.89648251 644.727951 -296.27373678 643.30820129 -295.65226746 641.88789368 C-294.08429454 638.31781903 -292.49583515 634.7572892 -290.8999176 631.19963074 C-289.13575291 627.26562119 -287.38062225 623.32758709 -285.62590027 619.38935852 C-285.09737206 618.20336311 -285.09737206 618.20336311 -284.5581665 616.9934082 C-281.39193327 609.87829237 -278.29046891 602.73647478 -275.20793152 595.58467102 C-269.98293214 583.47161222 -264.67179569 571.39795759 -259.33293152 559.33467102 C-252.87387678 544.73990203 -246.43209345 530.13782882 -240.02043152 515.52217102 C-239.64245422 514.66062408 -239.26447693 513.79907715 -238.87504578 512.91142273 C-237.4113318 509.57501586 -235.94767826 506.2385825 -234.48420715 502.90206909 C-231.52169685 496.14841751 -228.55388217 489.39711454 -225.58293152 482.64717102 C-225.1541571 481.67272034 -224.72538269 480.69826965 -224.28361511 479.69429016 C-222.14742342 474.84031934 -220.00897643 469.98735331 -217.86808777 465.13545227 C-212.9621293 454.0106234 -208.09452202 442.87025485 -203.27043152 431.70967102 C-198.27517733 420.15359219 -193.21726928 408.62625057 -188.12788391 397.11134338 C-183.63438278 386.94453372 -179.15868406 376.77026883 -174.70793152 366.58467102 C-163.7097276 341.41977058 -152.672219 316.27207271 -141.58293152 291.14717102 C-141.2731839 290.44533691 -140.96343628 289.74350281 -140.64430237 289.020401 C-138.10296519 283.26233261 -135.56128784 277.5044144 -133.01896667 271.7467804 C-127.72490473 259.75347633 -122.47268827 247.74306774 -117.27043152 235.70967102 C-112.66841251 225.06513367 -108.02034591 214.44187746 -103.33293152 203.83467102 C-103.02454346 203.13676453 -102.7161554 202.43885803 -102.39842224 201.71980286 C-102.08693237 201.01488708 -101.7754425 200.30997131 -101.45451355 199.58369446 C-100.81371064 198.13350584 -100.17292306 196.68331045 -99.53215027 195.23310852 C-99.20934082 194.50253235 -98.88653137 193.77195618 -98.55393982 193.01924133 C-94.57217547 184.00477551 -90.60738436 174.9828585 -86.64543152 165.95967102 C-86.07834473 164.6682872 -86.07834473 164.6682872 -85.49980164 163.35081482 C-79.65407713 150.03605404 -73.84111274 136.70723745 -68.03913879 123.37336731 C-61.9493633 109.38256038 -55.79400324 95.42130879 -49.61961365 81.46766663 C-44.67107056 70.28409469 -39.73144243 59.09689216 -34.83137512 47.89198303 C-33.97231835 45.93002834 -33.11035281 43.96937487 -32.24772644 42.00898743 C-29.66884129 36.13820365 -27.13821559 30.25412839 -24.71965027 24.31513977 C-24.28144958 23.25649719 -23.8432489 22.19785461 -23.39176941 21.10713196 C-22.59779391 19.18168306 -21.82036463 17.24926748 -21.06510925 15.30830383 C-16.92664606 5.34572228 -10.77884581 -0.00268415 0 0 Z " fill="#E63C2A" transform="translate(449.5204315185547,335.8528289794922)"/>
<path d="M0 0 C1.29808594 0.00515625 2.59617187 0.0103125 3.93359375 0.015625 C27.73614328 0.46800432 52.18829486 10.2462738 69.625 26.4375 C70.800625 27.7059375 70.800625 27.7059375 72 29 C72.53109375 29.56074219 73.0621875 30.12148438 73.609375 30.69921875 C81.35948052 39.15232056 93 54.06748746 93 66 C96.73871906 62.48120559 99.72121718 58.78053168 102.66796875 54.57421875 C103.10753906 54.05472656 103.54710938 53.53523438 104 53 C104.66 53 105.32 53 106 53 C106.3403125 52.17242187 106.3403125 52.17242187 106.6875 51.328125 C108.38725926 48.31307583 110.54804816 46.18769631 113 43.75 C113.886875 42.85796875 114.77375 41.9659375 115.6875 41.046875 C118 39 118 39 120 39 C120 38.34 120 37.68 120 37 C121.57421875 35.6328125 121.57421875 35.6328125 123.6875 34.125 C125.97885226 32.47235221 128.17394973 30.84955699 130.3125 29 C133.72869711 26.45771378 137.38511097 24.58253914 141.14453125 22.59375 C144.61544567 20.65649544 147.81776699 18.44125397 151.02734375 16.1015625 C153 15 153 15 157 15 C157.33 14.34 157.66 13.68 158 13 C172.21160663 6.04070809 191.16974123 0.71731681 207 1 C208.60581562 0.85005117 210.20999296 0.68193315 211.8125 0.5 C216.90641682 -0.03620177 221.88200625 -0.16039297 227 0 C228.57394531 0.04253906 228.57394531 0.04253906 230.1796875 0.0859375 C245.27769821 0.80489039 259.13912335 5.25525112 273 11 C274.59134766 11.64195312 274.59134766 11.64195312 276.21484375 12.296875 C284.98719009 16.21618874 291.35529304 22.22416238 298 29 C299.18142578 30.20076172 299.18142578 30.20076172 300.38671875 31.42578125 C313.23139655 45.20016906 319.76130243 63.29109126 322.625 81.625 C322.81002075 82.79603271 322.81002075 82.79603271 322.9987793 83.99072266 C325.40120505 100.4934756 325.13924416 117.1439242 325.11352539 133.77539062 C325.11324285 136.34914651 325.11340255 138.92290248 325.1139679 141.49665833 C325.11448867 147.00704947 325.11138887 152.51742864 325.10573006 158.02781677 C325.09755406 165.99461392 325.09499363 173.96140537 325.09374207 181.92820626 C325.09156106 194.85822802 325.08492694 207.78824341 325.07543945 220.71826172 C325.06624061 233.26806609 325.05917191 245.81786872 325.05493164 258.36767578 C325.05466892 259.14307805 325.05440619 259.91848032 325.05413551 260.71737963 C325.05283034 264.60789207 325.05156666 268.49840451 325.05032361 272.38891697 C325.03998066 304.59261593 325.02238844 336.79630708 325 369 C321.6385445 370.68072775 317.84012532 370.12876829 314.14404297 370.11352539 C313.22691528 370.11367142 312.3097876 370.11381744 311.36486816 370.1139679 C308.32395081 370.11326948 305.2830942 370.1054804 302.2421875 370.09765625 C300.13754307 370.09579182 298.0328982 370.09436803 295.92825317 370.09336853 C290.38143725 370.08954535 284.8346474 370.07971674 279.2878418 370.06866455 C273.6307002 370.05844616 267.97355441 370.05386999 262.31640625 370.04882812 C251.21092603 370.03809431 240.10546518 370.02102026 229 370 C226.56091056 365.24938996 226.71283608 360.84204374 226.72825623 355.63389587 C226.72062597 354.21298632 226.72062597 354.21298632 226.71284157 352.76337153 C226.6981703 349.58691678 226.697647 346.41061712 226.69702148 343.23413086 C226.68936057 340.95732318 226.68081426 338.68051834 226.67144775 336.40371704 C226.6531598 331.49830246 226.64112689 326.59292608 226.63390923 321.68748283 C226.62242413 313.92520381 226.59696556 306.16300904 226.56959534 298.40077209 C226.53265978 287.51173983 226.50195388 276.62270835 226.47680664 265.73364258 C226.47520934 265.04280457 226.47361204 264.35196656 226.47196633 263.64019407 C226.47036743 262.94853664 226.46876853 262.25687921 226.46712118 261.54426247 C226.44447133 251.75582045 226.41983318 241.96738608 226.39282227 232.17895508 C226.39092612 231.49108356 226.38902997 230.80321205 226.38707637 230.09449594 C226.35522925 218.59978288 226.31946261 207.10508419 226.28178078 195.61038882 C226.25692708 187.90063478 226.23746356 180.19089152 226.22239864 172.48111236 C226.21215577 167.67318551 226.19800854 162.86527545 226.18292236 158.0573616 C226.17679401 155.83546027 226.17231958 153.61355363 226.16966438 151.39164543 C226.5533269 121.41624265 226.5533269 121.41624265 212.1640625 95.91796875 C199.83749729 84.99316095 182.90104203 83.28083998 167 84.0625 C150.44713553 85.3052654 136.55037648 92.93068157 123 102 C122.3296875 102.43183594 121.659375 102.86367188 120.96875 103.30859375 C117.13909968 105.87009232 114.30816793 108.73990252 111.40234375 112.30859375 C108.66173253 115.61412205 105.46959474 118.54509486 102.38760853 121.53067207 C99.01165719 125.65436973 99.30167879 129.80941822 99.36076355 134.94674683 C99.35240787 135.9441766 99.3440522 136.94160637 99.33544332 137.96926129 C99.31350849 141.30912787 99.32712263 144.64789544 99.34057617 147.98779297 C99.33212387 150.3827447 99.32148019 152.77768956 99.30880737 155.17262268 C99.28354913 160.99926041 99.28113917 166.82558474 99.28880527 172.65226488 C99.29649434 179.43349138 99.27600828 186.21454438 99.25378648 192.99572815 C99.21490534 205.08830379 99.19823445 217.18080363 99.19555664 229.2734375 C99.19290816 241.01859423 99.17978354 252.7636624 99.15258789 264.50878906 C99.15091451 265.23305265 99.14924113 265.95731623 99.14751705 266.7035272 C99.13905743 270.33703312 99.13039204 273.97053853 99.12162435 277.60404372 C99.04918167 307.73601501 99.0131654 337.86794091 99 368 C86.76119671 368.02312166 74.52239857 368.04091418 62.28357792 368.05181217 C56.60123488 368.05704139 50.91890673 368.06413973 45.23657227 368.07543945 C39.75770864 368.08626696 34.27885938 368.09227654 28.79998589 368.09487724 C26.70470389 368.09673174 24.60942272 368.10035282 22.5141468 368.10573006 C19.59022416 368.11293868 16.66636167 368.11399102 13.74243164 368.11352539 C12.8670575 368.11712067 11.99168335 368.12071594 11.08978271 368.12442017 C5.11405216 368.11405216 5.11405216 368.11405216 4 367 C3.89178347 363.99004732 3.84949212 361.00261803 3.84851074 357.99188232 C3.84216213 356.55644022 3.84216213 356.55644022 3.83568525 355.09199929 C3.82258449 351.85918296 3.81661735 348.62639132 3.81054688 345.39355469 C3.80261023 343.08627672 3.79422275 340.77900027 3.78541565 338.47172546 C3.76731482 333.48983954 3.75231478 328.50795704 3.73963928 323.52605438 C3.71947232 315.6526221 3.69181152 307.77922735 3.66296387 299.90582275 C3.62308892 288.86935278 3.58628056 277.83287623 3.55224609 266.79638672 C3.54900189 265.74501059 3.54900189 265.74501059 3.54569215 264.67239454 C3.53036726 259.69826332 3.51517273 254.72413169 3.5 249.75 C3.48268306 244.07503225 3.46529536 238.40006472 3.44775391 232.72509766 C3.4445156 231.67681632 3.4445156 231.67681632 3.44121188 230.60735759 C3.40509827 218.95573104 3.36510102 207.30412102 3.32245111 195.6525166 C3.29407354 187.82206771 3.27048692 179.99162322 3.25052643 172.16114855 C3.23714805 167.29128124 3.21973458 162.42143446 3.20121574 157.55158424 C3.19345332 155.28965842 3.18738653 153.02772606 3.18312263 150.76579094 C3.17708279 147.68250965 3.16503742 144.59930833 3.15148926 141.51605225 C3.15119327 140.61692572 3.15089728 139.7177992 3.15059233 138.79142642 C3.12664504 134.70993815 2.93131146 130.99405099 2 127 C2.03287109 125.56914062 2.03287109 125.56914062 2.06640625 124.109375 C1.85900395 114.39806736 -3.48467877 104.04359052 -10 97 C-13.16493598 94.34748222 -16.43381437 92.07797834 -20 90 C-20.8765625 89.47664063 -21.753125 88.95328125 -22.65625 88.4140625 C-27.17518389 86.50301803 -31.59398365 85.9336377 -36.4375 85.3125 C-37.35337891 85.18294922 -38.26925781 85.05339844 -39.21289062 84.91992188 C-63.8349909 81.5792349 -83.79060103 90.54563074 -103.171875 104.80078125 C-105.91212221 106.83201066 -105.91212221 106.83201066 -107.765625 108.79296875 C-109 110 -109 110 -111 110 C-111.495 111.485 -111.495 111.485 -112 113 C-112.66 113 -113.32 113 -114 113 C-114.24607215 113.59196419 -114.4921443 114.18392838 -114.74567318 114.79383087 C-116 117 -116 117 -117.91394138 118.54302216 C-122.14163292 121.98687321 -124.14639395 125.28109439 -124.7272625 130.6778717 C-125.08846826 136.85681601 -124.97846732 143.03503303 -124.89233398 149.22070312 C-124.88843803 151.60461112 -124.88808653 153.98852714 -124.89100647 156.37243652 C-124.88923858 162.1612596 -124.85090174 167.94900204 -124.79648017 173.73755032 C-124.73521507 180.47764567 -124.72032531 187.21760626 -124.70842589 193.95794052 C-124.68607335 205.9780508 -124.62875999 217.99772408 -124.54858398 230.01757812 C-124.47083549 241.68681416 -124.40714221 253.35597242 -124.36401367 265.02539062 C-124.36001289 266.10527515 -124.36001289 266.10527515 -124.35593127 267.20697552 C-124.32967555 274.36213198 -124.3054685 281.51729532 -124.281218 288.6724588 C-124.26942614 292.13934645 -124.25742222 295.60623334 -124.24537659 299.07312012 C-124.24189497 300.08834579 -124.24189497 300.08834579 -124.23834301 301.12408108 C-124.20810999 309.85714362 -124.16726632 318.59007042 -124.11504638 327.32302952 C-124.08540041 332.31613557 -124.05917717 337.3092569 -124.03323936 342.30238342 C-124.02012454 344.62728957 -124.00522411 346.95218639 -123.98846054 349.27706909 C-123.96575662 352.43572309 -123.94897496 355.59435504 -123.93357849 358.75305176 C-123.92520869 359.68560933 -123.91683889 360.61816689 -123.90821546 361.57898378 C-123.90071192 363.71952803 -123.9444243 365.86016419 -124 368 C-125.86455346 369.86455346 -128.53406348 369.12658685 -131.01521301 369.13552856 C-131.87966537 369.13350433 -132.74411774 369.1314801 -133.63476562 369.12939453 C-134.54038742 369.13114685 -135.44600922 369.13289917 -136.3790741 369.13470459 C-139.38815193 369.13912454 -142.39717152 369.13618461 -145.40625 369.1328125 C-147.48750825 369.1334855 -149.56876643 369.13445549 -151.65002441 369.13571167 C-156.01815538 369.13718884 -160.38626593 369.13503348 -164.75439453 369.13037109 C-170.36714553 369.1246738 -175.97984872 369.1279527 -181.59259796 369.13394356 C-185.89211389 369.13754866 -190.19161838 369.13641082 -194.49113464 369.13381577 C-196.56129461 369.13314636 -198.6314556 369.1339754 -200.70161438 369.13629532 C-203.58951586 369.13882102 -206.47733878 369.13498242 -209.36523438 369.12939453 C-210.22968674 369.13141876 -211.0941391 369.13344299 -211.98478699 369.13552856 C-217.88573763 369.11426237 -217.88573763 369.11426237 -219 368 C-219.09765788 366.09737423 -219.12371326 364.19106378 -219.12304783 362.28593349 C-219.12503888 361.03688683 -219.12702993 359.78784016 -219.12908131 358.5009436 C-219.12622772 357.09685589 -219.12328211 355.69276837 -219.12025452 354.28868103 C-219.12069009 352.81113926 -219.12156474 351.33359756 -219.12284368 349.85605627 C-219.12509141 345.77654243 -219.12106359 341.69705458 -219.11606562 337.61754405 C-219.11176526 333.22556422 -219.11320725 328.83358596 -219.1139679 324.44160461 C-219.1144934 316.82577604 -219.11134389 309.20995599 -219.10573006 301.59412956 C-219.09761856 290.5827909 -219.0950002 279.57145638 -219.09374207 268.56011505 C-219.09155099 250.69689402 -219.08488941 232.83367754 -219.07543945 214.97045898 C-219.06626676 197.61336286 -219.05918523 180.25626798 -219.05493164 162.89916992 C-219.05466892 161.83008823 -219.05440619 160.76100654 -219.05413551 159.65952843 C-219.05283051 154.29650156 -219.0515668 148.93347468 -219.05032361 143.5704478 C-219.03994927 99.04696205 -219.02232946 54.52348126 -219 10 C-215.63368132 9.42261505 -212.40761433 8.87505109 -208.98907471 8.87301636 C-208.25168564 8.87019653 -207.51429657 8.86737671 -206.75456238 8.86447144 C-205.96576187 8.86649567 -205.17696136 8.8685199 -204.36425781 8.87060547 C-203.09492149 8.86797699 -203.09492149 8.86797699 -201.79994202 8.86529541 C-199.0176485 8.86091273 -196.2354191 8.86380118 -193.453125 8.8671875 C-191.51593005 8.86651368 -189.57873519 8.86554301 -187.64154053 8.86428833 C-183.5899576 8.86281643 -179.53839676 8.86495055 -175.48681641 8.86962891 C-170.2857145 8.87534115 -165.08466403 8.87203454 -159.883564 8.86605644 C-155.88769134 8.86245013 -151.89183097 8.86358948 -147.89595795 8.86618423 C-145.97734318 8.86685252 -144.05872731 8.86602851 -142.14011383 8.86370468 C-139.46610028 8.86117537 -136.79217129 8.86502202 -134.11816406 8.87060547 C-133.32126663 8.86858124 -132.5243692 8.86655701 -131.70332336 8.86447144 C-126.22853479 8.8857326 -126.22853479 8.8857326 -124 10 C-124 24.19 -124 38.38 -124 53 C-120.30330895 51.15165448 -119.44937283 50.58418467 -117.125 47.5625 C-94.48902984 20.92911384 -53.79253501 4.02065498 -19.75 0.375 C-13.15988137 -0.14187205 -6.60554165 -0.13661927 0 0 Z " fill="#F5E4E2" transform="translate(2788,372)"/>
<path d="M0 0 C1.35513954 0.00539291 1.35513954 0.00539291 2.73765564 0.01089478 C3.68389801 0.01074875 4.63014038 0.01060272 5.60505676 0.01045227 C8.74880729 0.0111518 11.89249938 0.01894608 15.03623962 0.02676392 C17.20957405 0.02862795 19.3829089 0.03005192 21.5562439 0.03105164 C27.28884533 0.03487795 33.0214216 0.0447092 38.75401306 0.05575562 C44.59873616 0.0659673 50.44346331 0.07054873 56.28819275 0.07559204 C67.76541737 0.08633137 79.24262328 0.10340915 90.71983337 0.12442017 C91.51755487 2.49857218 92.31370889 4.87323117 93.10899353 7.24819946 C93.33261063 7.91319206 93.55622772 8.57818466 93.78662109 9.26332855 C95.7406938 15.10552039 97.46611287 20.99583137 99.09483337 26.93692017 C99.38737 27.99314575 99.67990662 29.04937134 99.98130798 30.13760376 C100.90011591 33.46493969 101.81150548 36.7942089 102.71983337 40.12442017 C103.01680115 41.21319458 103.31376892 42.30196899 103.61973572 43.42373657 C106.25822409 53.12223701 108.8736086 62.82646628 111.38780212 72.55801392 C111.6545575 73.58974731 111.92131287 74.62148071 112.19615173 75.68447876 C112.69361215 77.6149831 113.18815853 79.54624195 113.67906189 81.47842407 C114.73627171 85.58983768 115.85718379 89.6356054 117.23545837 93.65176392 C119.14515529 99.22992701 120.45886121 104.93324656 121.82530212 110.66348267 C122.99022787 115.45674402 124.34698102 120.10046482 125.94737244 124.76504517 C127.44162778 129.32904126 128.618734 133.98270669 129.84483337 138.62442017 C130.45887253 140.92664871 131.07348472 143.22872447 131.68858337 145.53067017 C132.01471619 146.75270142 132.340849 147.97473267 132.67686462 149.23379517 C134.54183554 156.20392435 136.44491679 163.16375386 138.34483337 170.12442017 C138.53924011 170.83712067 138.73364685 171.54982117 138.9339447 172.28411865 C141.23346021 180.71299516 143.54809431 189.1373363 145.90122986 197.55142212 C148.09247916 205.41358294 150.19859024 213.29890867 152.31016541 221.18276978 C152.86639614 223.25733018 153.42637792 225.33088999 153.99082947 227.40322876 C154.43664251 229.06733865 154.86569382 230.73619831 155.26524353 232.41201782 C155.7485226 234.49948187 155.7485226 234.49948187 156.71983337 237.12442017 C157.70983337 237.45442017 158.69983337 237.78442017 159.71983337 238.12442017 C159.84358337 237.59977173 159.96733337 237.07512329 160.09483337 236.53457642 C163.19800452 224.56797268 167.47024486 212.86279279 171.40782166 201.15444946 C174.01974798 193.34442804 176.44557073 185.51176569 178.64952087 177.57754517 C179.71983337 174.12442017 179.71983337 174.12442017 181.18858337 170.74942017 C182.97211657 166.52717831 184.15302498 162.29197165 185.34483337 157.87442017 C188.08594209 147.98088442 191.26179845 138.25993246 194.56016541 128.53945923 C196.46038748 122.93501738 198.30293158 117.33543304 199.92222595 111.64273071 C200.59637262 109.51422663 201.33944077 107.45121459 202.13267517 105.3656311 C203.73531616 101.14001672 205.15068198 96.86799673 206.53233337 92.56582642 C206.78732605 91.7772374 207.04231873 90.98864838 207.30503845 90.17616272 C208.11172589 87.68031143 208.91588611 85.18365529 209.71983337 82.68692017 C210.52429136 80.19392327 211.32928453 77.70110017 212.1346283 75.20838928 C212.63281314 73.66583627 213.13041594 72.1230951 213.62730408 70.5801239 C215.06095277 66.13447783 216.52446455 61.69973937 218.00550842 57.26966858 C219.70585452 52.16321841 221.34663257 47.03711796 222.99888611 41.91494751 C223.65165635 39.89201327 224.30582929 37.86953622 224.96006775 35.84707642 C227.31529337 28.55494732 229.62443798 21.25163609 231.85801697 13.92105103 C235.12938969 3.30530754 235.12938969 3.30530754 236.71983337 0.12442017 C264.76983337 0.12442017 292.81983337 0.12442017 321.71983337 0.12442017 C326.16427782 11.23553128 326.16427782 11.23553128 327.21983337 15.62442017 C328.36403201 20.04575293 329.84009296 24.15985163 331.65733337 28.34707642 C332.8559574 31.48024437 333.7938348 34.64387316 334.74229431 37.86050415 C337.02283099 45.47501334 339.44724057 53.04612968 341.84483337 60.62442017 C342.13196198 61.53260498 342.41909058 62.44078979 342.71492004 63.37649536 C346.58051067 75.58628343 350.54087842 87.7480818 354.82774353 99.81777954 C356.92336225 105.72727961 358.83617819 111.66915531 360.65904236 117.66836548 C362.60567185 124.01047989 364.67071012 130.3148567 366.71983337 136.62442017 C367.2011029 138.10828472 367.6823023 139.59217201 368.16343689 141.07608032 C368.91642661 143.39822739 369.66954724 145.72033155 370.4230957 148.04229736 C372.18162227 153.46139952 373.93432816 158.88235943 375.68467712 164.30410767 C382.20329199 184.48309066 388.84488407 204.61854183 395.58164978 224.72573853 C395.95725037 225.84730347 396.33285095 226.96886841 396.71983337 228.12442017 C397.09930115 229.17959839 397.47876892 230.23477661 397.86973572 231.32192993 C398.71983337 234.12442017 398.71983337 234.12442017 398.71983337 238.12442017 C399.70983337 237.79442017 400.69983337 237.46442017 401.71983337 237.12442017 C402.74885614 234.9950356 402.74885614 234.9950356 403.46983337 232.18692017 C403.80370056 231.02418579 404.13756775 229.86145142 404.48155212 228.66348267 C404.89607629 227.1509441 405.30859366 225.63785504 405.71983337 224.12442017 C406.12322937 222.65440552 406.12322937 222.65440552 406.53477478 221.1546936 C409.18742863 211.47040176 411.83275285 201.7852599 414.21592712 192.03067017 C415.66812935 186.17718551 417.41355339 180.439295 419.21983337 174.68692017 C421.37380695 167.72703185 423.33268376 160.82514855 424.86045837 153.69863892 C426.05155774 148.74474836 427.51816856 143.88236383 428.96983337 138.99942017 C431.57516857 130.22987294 433.97033536 121.42923072 436.21983337 112.56192017 C438.6374287 103.05307387 441.30938145 93.66520905 444.22447205 84.29776001 C447.20598383 74.67587807 449.80706904 64.95881267 452.19615173 55.17349243 C453.53241749 49.71553447 455.08451339 44.33085144 456.65733337 38.93692017 C458.68214131 31.94135222 460.50717696 24.96748434 462.07139587 17.85488892 C463.02347358 13.84583883 464.3405554 10.00228546 465.71983337 6.12442017 C466.37983337 4.14442017 467.03983337 2.16442017 467.71983337 0.12442017 C500.05983337 0.12442017 532.39983337 0.12442017 565.71983337 0.12442017 C564.59558515 9.11840595 564.59558515 9.11840595 563.33702087 13.09317017 C563.0604364 13.98149536 562.78385193 14.86982056 562.49888611 15.7850647 C562.20054871 16.722052 561.9022113 17.65903931 561.59483337 18.62442017 C560.95687092 20.67351253 560.32019231 22.72300497 559.68467712 24.77285767 C559.35838318 25.82183228 559.03208923 26.87080688 558.69590759 27.9515686 C557.13178121 33.03595743 555.64109111 38.14109572 554.15733337 43.24942017 C553.72215393 44.74445068 553.72215393 44.74445068 553.27818298 46.26968384 C551.88899156 51.05415725 550.51305709 55.84207276 549.15733337 60.63613892 C546.8133317 68.92272274 544.42134218 77.17644454 541.78233337 85.37442017 C539.09818852 93.71815045 536.73031866 102.1347951 534.39585876 110.58218384 C532.1692794 118.60555793 529.79211712 126.57337773 527.34507751 134.53189087 C524.32498784 144.36718988 521.45418208 154.24413407 518.59043884 164.12588501 C517.73245252 167.08095736 516.8696666 170.03458046 516.00498962 172.98770142 C513.55870373 181.34607654 511.11604485 189.70463461 508.74717712 198.08535767 C504.66406526 212.5236593 500.34441223 226.85095271 495.71983337 241.12442017 C493.28799238 248.68495147 491.14872878 256.17699065 489.52842712 263.95645142 C488.72227861 267.11484003 487.64828423 270.02970073 486.47593689 273.06411743 C485.25872431 276.38089396 484.3748575 279.77432272 483.46983337 283.18692017 C481.59198763 290.10192125 479.57894593 296.96405857 477.46983337 303.81192017 C475.39661347 310.54684876 473.36749518 317.29217098 471.41123962 324.06192017 C471.21390228 324.74470535 471.01656494 325.42749054 470.81324768 326.13096619 C469.84336449 329.49112538 468.87760188 332.85242348 467.91612244 336.21499634 C466.8684705 339.85698022 465.79929823 343.49175118 464.71983337 347.12442017 C464.38387146 348.28667114 464.04790955 349.44892212 463.70176697 350.64639282 C463.37128357 351.72839966 463.04080017 352.81040649 462.70030212 353.92520142 C462.41437195 354.88208862 462.12844177 355.83897583 461.83384705 356.82485962 C460.47066469 359.63875718 459.5742836 359.98922304 456.71983337 361.12442017 C454.68990231 361.37889576 454.68990231 361.37889576 452.50057983 361.38511658 C451.66641541 361.39220139 450.83225098 361.39928619 449.97280884 361.40658569 C449.06617996 361.40410828 448.15955109 361.40163086 447.22544861 361.39907837 C445.78339554 361.40674477 445.78339554 361.40674477 444.31221008 361.41456604 C441.13421914 361.42846744 437.95644486 361.42750519 434.77842712 361.42520142 C432.57172566 361.42908732 430.36502494 361.43342177 428.1583252 361.43818665 C423.53402785 361.44564951 418.90980687 361.44535654 414.2855072 361.44009399 C408.35120727 361.43429162 402.41721866 361.45124873 396.48297024 361.47443867 C391.92687138 361.48914672 387.37084808 361.49005184 382.81472969 361.48692894 C380.62619979 361.48744337 378.4376658 361.49270389 376.24915886 361.50274086 C373.19417232 361.51503456 370.13979982 361.50835665 367.08482361 361.49673462 C366.1761705 361.50437836 365.2675174 361.51202209 364.33132935 361.51989746 C363.49998474 361.51288315 362.66864014 361.50586884 361.81210327 361.49864197 C361.09000388 361.49880971 360.36790449 361.49897745 359.6239233 361.49915028 C357.12777693 361.00790184 356.28047694 360.10190262 354.71983337 358.12442017 C353.78208523 355.76575488 352.9681989 353.47841659 352.21983337 351.06192017 C351.81764587 349.8128186 351.41545837 348.56371704 351.00108337 347.27676392 C349.81422207 343.46458941 348.67089739 339.63964122 347.52793884 335.81411743 C346.05448383 330.90987154 344.54093385 326.0179453 343.03233337 321.12442017 C342.68420593 319.99359009 342.33607849 318.86276001 341.97740173 317.69766235 C340.23298081 312.03172672 338.48603369 306.36658227 336.73545837 300.70254517 C332.80746587 287.98080369 328.95911976 275.23797693 325.15904236 262.47744751 C322.1621474 252.47140348 318.99960019 242.52813325 315.72593689 232.60928345 C313.69445723 226.39936103 311.96297892 220.19813604 310.43370056 213.84683228 C309.46260294 210.14344322 308.1129092 206.68994126 306.71983337 203.12442017 C305.98548062 200.73643367 305.27850707 198.33990659 304.59483337 195.93692017 C302.28334789 187.92462593 299.82599062 179.96064439 297.34483337 171.99942017 C293.66631468 160.19040452 290.04203526 148.36612855 286.45127869 136.53018188 C284.88860953 131.39048166 283.30589224 126.25694606 281.71983337 121.12442017 C280.72983337 121.12442017 279.73983337 121.12442017 278.71983337 121.12442017 C274.49046393 134.36481728 270.3765795 147.6301224 266.62608337 161.01504517 C266.28577087 162.22676392 265.94545837 163.43848267 265.59483337 164.68692017 C265.15784119 166.26666626 265.15784119 166.26666626 264.71202087 167.87832642 C263.78066806 170.92539015 262.67262874 173.86660754 261.53623962 176.84146118 C259.89593032 181.42834285 258.61909716 186.12957044 257.28233337 190.81192017 C256.66447055 192.95142418 256.04598617 195.0907488 255.42686462 197.22988892 C255.13247498 198.24873169 254.83808533 199.26757446 254.53477478 200.31729126 C252.41003392 207.636126 250.23929268 214.90270514 247.47276306 222.00747681 C246.65674248 224.30180705 246.02809475 226.60071652 245.41123962 228.95645142 C243.53489004 235.92558476 241.37858755 242.80099306 239.21983337 249.68692017 C238.43813922 252.18808348 237.65688074 254.689383 236.87608337 257.19082642 C236.50499451 258.37958374 236.13390564 259.56834106 235.75157166 260.79312134 C234.6130298 264.46926984 233.50750547 268.15438727 232.40830994 271.84243774 C231.26332074 275.63754909 230.05082564 279.41085298 228.84483337 283.18692017 C225.59866362 293.41245615 222.52077428 303.6843548 219.62608337 314.01504517 C219.28577087 315.22676392 218.94545837 316.43848267 218.59483337 317.68692017 C218.15784119 319.26666626 218.15784119 319.26666626 217.71202087 320.87832642 C216.96798287 323.31256099 216.16528738 325.63651454 215.25498962 328.00723267 C213.69407348 332.09146732 212.4689412 336.23126444 211.28233337 340.43692017 C209.3644538 347.10885634 207.22460932 353.64558629 204.71983337 360.12442017 C198.58061957 360.89054573 192.59126369 361.28095367 186.4080658 361.30142212 C185.52560181 361.30799332 184.64313782 361.31456451 183.7339325 361.32133484 C180.84772127 361.34086246 177.9615612 361.35267573 175.07530212 361.36270142 C173.58922675 361.36881471 173.58922675 361.36881471 172.07312965 361.3750515 C166.84249207 361.39581099 161.61188003 361.41016364 156.38121033 361.41958618 C150.9795669 361.43071075 145.5783286 361.46520831 140.17682934 361.50475788 C136.01703101 361.53084798 131.85733123 361.53927056 127.69745827 361.54286766 C125.70510898 361.54774275 123.71276437 361.55938288 121.72049522 361.57790565 C118.94153791 361.60216519 116.16365831 361.60135798 113.3846283 361.59439087 C112.15103325 361.61360596 112.15103325 361.61360596 110.89251709 361.63320923 C107.28443314 361.60016448 105.17272715 361.46638428 102.24937439 359.25906372 C100.4305931 356.7207534 99.57403261 354.47230334 98.67686462 351.47988892 C98.32978455 350.34317749 97.98270447 349.20646606 97.62510681 348.03530884 C97.26449158 346.80659058 96.90387634 345.57787231 96.53233337 344.31192017 C96.14430384 343.0229728 95.75528809 341.73432197 95.36534119 340.44595337 C94.12981579 336.34469285 92.92181427 332.23561976 91.71983337 328.12442017 C91.51944458 327.43976685 91.31905579 326.75511353 91.1125946 326.04971313 C89.33650282 319.97665982 87.57084342 313.90061554 85.81919861 307.82046509 C83.61817836 300.18556993 81.35326147 292.58376026 78.94639587 285.01113892 C77.40787681 280.16722772 75.94334553 275.30091282 74.46983337 270.43692017 C71.80024257 261.63299737 69.08226098 252.84496816 66.34483337 244.06192017 C62.78181277 232.62411316 59.31698533 221.15981018 55.89317322 209.67984009 C53.58881907 201.96935117 51.20734615 194.28929581 48.74864197 186.62686157 C46.85045289 180.66093443 45.18058788 174.64445451 43.5408783 168.60317993 C42.26496166 163.95034748 40.84296535 159.37950228 39.28233337 154.81192017 C36.34574201 146.20466963 33.91750669 137.46530195 31.45176697 128.71377563 C30.32892322 124.74150052 29.18675063 120.7751234 28.03233337 116.81192017 C27.84219666 116.14950317 27.65205994 115.48708618 27.4561615 114.80459595 C26.3224677 110.92455855 24.98609952 107.1648701 23.5433197 103.39077759 C21.8147636 98.63353291 20.38435458 93.77681811 18.90733337 88.93692017 C18.55695007 87.79360229 18.20656677 86.65028442 17.8455658 85.47232056 C14.91352572 75.85814312 12.13556259 66.20458916 9.40342712 56.53213501 C8.2985766 52.64069362 7.16940163 48.75655385 6.03233337 44.87442017 C5.74676575 43.89203369 5.74676575 43.89203369 5.45542908 42.88980103 C4.46831634 39.52896845 3.42061792 36.19776562 2.30186462 32.87832642 C0.45498503 27.38995227 -1.22531663 21.85328976 -2.90516663 16.31192017 C-3.21711975 15.28904907 -3.52907288 14.26617798 -3.85047913 13.21231079 C-6.83579989 3.38777459 -6.83579989 3.38777459 -7.28016663 1.12442017 C-5.36952364 -0.78622282 -2.54188767 0.00427405 0 0 Z " fill="#F5E4E2" transform="translate(930.2801666259766,378.8755798339844)"/>
<path d="M0 0 C2.60657598 0.01602553 5.21158723 0.00010283 7.81811523 -0.01904297 C18.51499351 -0.03214809 28.37177061 1.01825084 38.80834961 3.39111328 C40.17811814 3.68532913 41.54815738 3.97828733 42.91845703 4.27001953 C57.47870833 7.44994385 71.31569755 13.26842054 83.80834961 21.39111328 C84.92209961 21.98923828 86.03584961 22.58736328 87.18334961 23.20361328 C105.87204809 34.05511563 121.75676606 50.95327222 132.80834961 69.39111328 C133.2016748 70.03612793 133.595 70.68114258 134.00024414 71.34570312 C151.53092206 100.34235303 160.08306719 132.63561956 162.64526367 166.29882812 C162.78959063 168.15044797 162.96465605 169.99961565 163.14428711 171.84814453 C167.85159007 222.41984524 156.41412451 280.00405925 123.83178711 320.09814453 C120.91145446 323.60987237 117.8910963 327.02159946 114.80834961 330.39111328 C114.04780273 331.22384766 113.28725586 332.05658203 112.50366211 332.91455078 C98.29369494 347.74913189 77.98595722 361.37810713 58.08178711 366.74658203 C55.54320737 367.41886884 55.54320737 367.41886884 52.18334961 368.89111328 C25.07343129 379.15759122 -9.41352195 379.08513826 -37.19165039 372.39111328 C-38.4768457 372.09076172 -39.76204102 371.79041016 -41.08618164 371.48095703 C-60.08136366 366.55628021 -78.28789052 356.21194814 -92.19165039 342.39111328 C-93.05790039 341.54548828 -93.92415039 340.69986328 -94.81665039 339.82861328 C-95.60040039 339.02423828 -96.38415039 338.21986328 -97.19165039 337.39111328 C-98.56528698 336.01475122 -99.94040436 334.63986612 -101.31665039 333.26611328 C-103.60831706 330.97444661 -105.89998372 328.68277995 -108.19165039 326.39111328 C-108.1898068 327.30571225 -108.18796322 328.22031122 -108.18606377 329.16262531 C-108.14193542 351.39528487 -108.10881854 373.62793689 -108.08802605 395.86063099 C-108.07770424 406.61210005 -108.06362666 417.36353991 -108.04077148 428.11499023 C-108.02086526 437.48365427 -108.00794054 446.85229718 -108.0034734 456.22098178 C-108.00086132 461.18369741 -107.99470309 466.14635256 -107.98019028 471.10904884 C-107.96665005 475.77683294 -107.96242051 480.44453143 -107.96543503 485.1123333 C-107.96488327 486.82845143 -107.96088468 488.54457233 -107.95323944 490.26067352 C-107.94333381 492.59814912 -107.94566533 494.93529871 -107.95114136 497.27278137 C-107.94929777 498.5826492 -107.94745419 499.89251703 -107.94555473 501.24207783 C-108.19165039 504.39111328 -108.19165039 504.39111328 -110.19165039 507.39111328 C-113.14656167 507.6825184 -115.8915078 507.77955456 -118.84814453 507.74755859 C-119.74415878 507.74960297 -120.64017303 507.75164734 -121.56333923 507.75375366 C-124.53470041 507.75676982 -127.50551114 507.73826089 -130.47680664 507.71923828 C-132.53421389 507.71618227 -134.59162321 507.71430495 -136.64903259 507.71356201 C-140.96418148 507.70895383 -145.27914427 507.69450723 -149.59423828 507.67236328 C-155.13858994 507.64406279 -160.68279493 507.63315066 -166.22721195 507.62868118 C-170.47612489 507.62453382 -174.72500787 507.61472237 -178.97390556 507.60280609 C-181.01894324 507.5970902 -183.06398382 507.59233589 -185.10902596 507.58853912 C-187.96091966 507.5817001 -190.81269465 507.56807948 -193.66455078 507.55224609 C-194.94484665 507.55056931 -194.94484665 507.55056931 -196.25100708 507.54885864 C-202.07696436 507.50579932 -202.07696436 507.50579932 -203.19165039 506.39111328 C-203.29147365 503.7604011 -203.32526128 501.15589088 -203.31749153 498.52464294 C-203.31894497 497.68635535 -203.32039841 496.84806775 -203.3218959 495.9843775 C-203.32558309 493.13873728 -203.32205698 490.29314971 -203.31863403 487.44750977 C-203.31978478 485.40145814 -203.32137199 483.35540672 -203.32336128 481.30935574 C-203.32756099 475.65835954 -203.32546103 470.00738008 -203.32237506 464.3563838 C-203.32012377 458.27316133 -203.32359921 452.18994186 -203.32635498 446.10671997 C-203.33055645 434.86887205 -203.33017572 423.63102953 -203.32744351 412.39318171 C-203.32493211 402.01308695 -203.32426931 391.63299417 -203.32546616 381.25289917 C-203.32554254 380.56548503 -203.32561893 379.87807089 -203.32569763 379.16982602 C-203.32600894 376.37968271 -203.32632734 373.5895394 -203.32665739 370.79939609 C-203.32971928 344.6032636 -203.32693835 318.40713454 -203.32156049 292.21100257 C-203.31681457 268.91589441 -203.31723918 245.62079171 -203.32202148 222.32568359 C-203.32737125 196.17874728 -203.32950217 170.03181399 -203.32640922 143.8848772 C-203.32608848 141.09969393 -203.32577564 138.31451066 -203.32546616 135.52932739 C-203.32538708 134.84349868 -203.325308 134.15766996 -203.32522653 133.45105856 C-203.32408704 123.07519015 -203.32542307 112.69932392 -203.32794571 102.32345581 C-203.33079848 90.530597 -203.33000727 78.73774342 -203.32466497 66.94488502 C-203.32202679 60.9216079 -203.32102484 54.8983419 -203.32431412 48.87506485 C-203.3272747 43.3706533 -203.32568827 37.86626329 -203.32033657 32.36185372 C-203.31921135 30.36120631 -203.31980583 28.36055712 -203.32221235 26.35991085 C-203.32521407 23.65910853 -203.32217423 20.95838185 -203.31749153 18.25758362 C-203.3198327 17.46474114 -203.32217386 16.67189866 -203.32458597 15.85503066 C-203.30580073 10.50526362 -203.30580073 10.50526362 -202.19165039 9.39111328 C-199.30021888 9.29587423 -196.43272975 9.26558301 -193.54101562 9.27758789 C-192.18017349 9.27736885 -192.18017349 9.27736885 -190.7918396 9.27714539 C-187.77795054 9.27784487 -184.76412247 9.28563894 -181.75024414 9.29345703 C-179.66659072 9.29532108 -177.58293686 9.29674505 -175.49928284 9.29774475 C-170.00341593 9.30157094 -164.50757526 9.31140208 -159.01171875 9.32244873 C-153.40828812 9.33266068 -147.80485326 9.33724191 -142.20141602 9.34228516 C-131.19814925 9.35302426 -120.194902 9.37010189 -109.19165039 9.39111328 C-107.47362657 12.82716093 -108.07198859 16.77550224 -108.09399414 20.55517578 C-108.09540909 21.46238373 -108.09682404 22.36959167 -108.09828186 23.30429077 C-108.10388944 26.20826484 -108.11644321 29.11216243 -108.12915039 32.01611328 C-108.13416442 33.982258 -108.13872749 35.94840393 -108.14282227 37.91455078 C-108.15386133 42.74010118 -108.17113104 47.56559426 -108.19165039 52.39111328 C-107.58936615 51.72577576 -107.58936615 51.72577576 -106.97491455 51.04699707 C-91.41700495 33.88441832 -75.13856205 19.55634443 -53.45727539 10.76611328 C-50.12918291 9.48549768 -50.12918291 9.48549768 -47.19165039 7.39111328 C-44.56722341 6.67876881 -41.96906799 6.03912036 -39.31665039 5.45361328 C-38.28411133 5.21868164 -38.28411133 5.21868164 -37.23071289 4.97900391 C-35.73297054 4.63848459 -34.23337622 4.3060504 -32.73242188 3.97998047 C-30.95016814 3.56691272 -29.17892267 3.10474288 -27.41845703 2.60693359 C-18.23891761 0.142254 -9.43562869 -0.06880238 0 0 Z M-42.00415039 86.26611328 C-42.8665332 86.45044922 -43.72891602 86.63478516 -44.61743164 86.82470703 C-45.46692383 87.01162109 -46.31641602 87.19853516 -47.19165039 87.39111328 C-47.94833008 87.54708984 -48.70500977 87.70306641 -49.48461914 87.86376953 C-51.73029411 88.3367524 -53.96056818 88.85364287 -56.19165039 89.39111328 C-56.92512695 89.55998047 -57.65860352 89.72884766 -58.41430664 89.90283203 C-75.93459428 94.49496085 -93.45324089 105.64573913 -105.19165039 119.39111328 C-106.04219498 120.33686722 -106.89273956 121.28262115 -107.76905823 122.2570343 C-111.36061931 127.36531339 -110.92975136 132.79370115 -110.91796875 138.8371582 C-110.93476181 140.07711548 -110.95155487 141.31707275 -110.96885681 142.59460449 C-111.0081112 145.98172194 -111.02473785 149.36730649 -111.02793574 152.75454497 C-111.03150199 154.87625277 -111.04219931 156.99780229 -111.05542183 159.1194706 C-111.10162427 166.53800189 -111.12210549 173.95608546 -111.11816406 181.37475586 C-111.11516483 188.26293471 -111.16783931 195.14914971 -111.24688238 202.03683203 C-111.31253617 207.97181134 -111.33907211 213.90615338 -111.33588701 219.84149247 C-111.33461948 223.37704368 -111.34844511 226.91084972 -111.40177727 230.44603539 C-112.42675115 247.8171529 -112.42675115 247.8171529 -105.43603516 262.93920898 C-102.89715994 265.38072382 -102.89715994 265.38072382 -100.19165039 267.39111328 C-98.85474403 268.55292366 -98.85474403 268.55292366 -97.49082947 269.73820496 C-95.13724273 271.75916462 -92.71131709 273.58317062 -90.19165039 275.39111328 C-89.52133789 275.89900391 -88.85102539 276.40689453 -88.16040039 276.93017578 C-81.37212088 281.81251528 -73.7155181 285.12464635 -66.11401367 288.52636719 C-64.55705088 289.22674339 -63.0111677 289.95171553 -61.46899414 290.68408203 C-40.76688014 299.95209533 -17.29791506 297.06580592 3.48022461 289.79345703 C7.38113555 288.14976334 10.69762269 286.16429554 14.07397461 283.62548828 C15.80834961 282.39111328 15.80834961 282.39111328 18.80834961 281.39111328 C18.80834961 280.73111328 18.80834961 280.07111328 18.80834961 279.39111328 C20.45834961 279.06111328 22.10834961 278.73111328 23.80834961 278.39111328 C23.80834961 277.73111328 23.80834961 277.07111328 23.80834961 276.39111328 C24.3690918 276.15392578 24.92983398 275.91673828 25.50756836 275.67236328 C41.37006616 266.83891798 51.96027628 244.24169826 56.80834961 227.39111328 C57.92463818 222.74493922 58.8991738 218.08176556 59.80834961 213.39111328 C59.97802246 212.6106665 60.14769531 211.83021973 60.32250977 211.02612305 C63.06091488 196.17405951 62.18280172 180.22755912 59.80834961 165.39111328 C59.66268555 164.46814453 59.51702148 163.54517578 59.36694336 162.59423828 C58.92680052 160.1675048 58.38558374 157.78885506 57.80834961 155.39111328 C57.56600586 154.26705078 57.32366211 153.14298828 57.07397461 151.98486328 C51.9781682 130.35003606 38.66485804 110.8508826 19.74584961 99.01611328 C17.12257199 97.43293483 14.4760037 95.89811165 11.80834961 94.39111328 C11.0181543 93.93736328 10.22795898 93.48361328 9.41381836 93.01611328 C-4.67869851 85.90036512 -26.69461806 82.96555076 -42.00415039 86.26611328 Z " fill="#F5E4E2" transform="translate(3410.191650390625,369.60888671875)"/>
<path d="M0 0 C3.58258721 3.10667856 7.03106366 6.34746269 10.453125 9.62890625 C12.75403752 11.99457674 12.75403752 11.99457674 15 13 C14.99777939 12.42592911 14.99555878 11.85185822 14.99327087 11.26039124 C14.97121743 5.3074709 14.95609316 -0.6454379 14.94506836 -6.59838867 C14.94002683 -8.82267732 14.93319377 -11.04696263 14.92456055 -13.27124023 C14.91248702 -16.46078309 14.90677004 -19.65028229 14.90234375 -22.83984375 C14.89718246 -23.84087631 14.89202118 -24.84190887 14.88670349 -25.87327576 C14.88659019 -27.25459435 14.88659019 -27.25459435 14.88647461 -28.66381836 C14.884254 -29.47878281 14.88203339 -30.29374725 14.87974548 -31.13340759 C15 -33 15 -33 16 -34 C18.7388842 -34.09516211 21.45247941 -34.12554594 24.19165039 -34.11352539 C25.05011063 -34.11367142 25.90857086 -34.11381744 26.79304504 -34.1139679 C29.64460738 -34.11326847 32.49610525 -34.1054747 35.34765625 -34.09765625 C37.31920842 -34.09579218 39.29076105 -34.09436822 41.26231384 -34.09336853 C46.46226267 -34.08954251 51.66218375 -34.07971152 56.86212158 -34.06866455 C62.16393661 -34.05845222 67.4657561 -34.05387129 72.76757812 -34.04882812 C83.17839763 -34.03808933 93.58919651 -34.02101191 104 -34 C104.02286437 11.71745524 104.0404972 57.43490988 104.05106533 103.1523697 C104.05231611 108.54371848 104.05361042 113.93506725 104.05493164 119.32641602 C104.05532511 120.9364686 104.05532511 120.9364686 104.05572652 122.57904751 C104.06008366 139.98302964 104.06797144 157.38700849 104.0771528 174.79098868 C104.08648813 192.63501911 104.09205535 210.47904782 104.09408849 228.3230806 C104.09546397 239.34317338 104.0998159 250.36325688 104.10791647 261.3833468 C104.11318244 268.92938347 104.11480464 276.4754153 104.11350138 284.02145367 C104.11285776 288.3819827 104.11387812 292.74249545 104.11920547 297.10302162 C104.1240391 301.08827677 104.1243389 305.07350454 104.12089889 309.05876089 C104.12047316 310.5069527 104.12176922 311.95514615 104.12488318 313.40333467 C104.12884666 315.35899123 104.12615658 317.31465801 104.12304783 319.27031612 C104.12342755 320.36049319 104.12380727 321.45067026 104.1241985 322.573883 C104 325 104 325 103 326 C100.29699701 326.10046803 97.61951654 326.13616452 94.91601562 326.12939453 C94.06891525 326.13114685 93.22181488 326.13289917 92.3490448 326.13470459 C89.53475934 326.13912409 86.72053616 326.13618477 83.90625 326.1328125 C81.95951322 326.13348551 80.01277653 326.13445551 78.06604004 326.13571167 C73.98037925 326.13718878 69.89474029 326.13503368 65.80908203 326.13037109 C60.55953484 326.1246738 55.31003878 326.12795274 50.06049347 326.13394356 C46.03891613 326.13754883 42.01735101 326.13641074 37.99577332 326.13381577 C36.05958551 326.1331464 34.12339661 326.13397525 32.18721008 326.13629532 C29.48610476 326.13882129 26.78508341 326.13498205 24.08398438 326.12939453 C22.87146248 326.13243088 22.87146248 326.13243088 21.63444519 326.13552856 C16.11426248 326.11426248 16.11426248 326.11426248 15 325 C14.87778475 323.55815707 14.82227242 322.11056856 14.79467773 320.66381836 C14.77473251 319.7429393 14.75478729 318.82206024 14.73423767 317.87327576 C14.71752518 316.87224319 14.70081268 315.87121063 14.68359375 314.83984375 C14.66281265 313.82024063 14.64203156 312.80063751 14.62062073 311.75013733 C14.55501148 308.47932952 14.49618766 305.20843863 14.4375 301.9375 C14.39432558 299.72590272 14.35071166 297.51431397 14.30664062 295.30273438 C14.1993186 289.86857849 14.09757377 284.43433918 14 279 C13.21351074 279.73387939 12.42702148 280.46775879 11.61669922 281.22387695 C-20.3032729 310.85487238 -60.97156228 327.17662084 -104.6640625 326.09326172 C-150.34848342 324.26932267 -189.37902509 301.65486064 -220.15332031 269.04638672 C-224.94868682 263.73243086 -229.03630449 257.9472228 -233 252 C-233.680625 251.00355469 -234.36125 250.00710938 -235.0625 248.98046875 C-263.26590625 205.59498695 -270.62334808 152.60408053 -260.296875 102.38452148 C-252.90653232 69.41956768 -236.63355733 40.79615564 -214 16 C-213.25363281 15.18144531 -212.50726562 14.36289062 -211.73828125 13.51953125 C-201.63373031 2.96671927 -189.52277416 -5.56574015 -177 -13 C-176.37851074 -13.37366699 -175.75702148 -13.74733398 -175.11669922 -14.13232422 C-158.6468349 -23.88777555 -139.93321513 -30.21975846 -121 -33 C-119.84113281 -33.18175781 -118.68226563 -33.36351562 -117.48828125 -33.55078125 C-75.79144027 -38.57012181 -32.7004742 -26.38778182 0 0 Z M-155.82421875 75.4921875 C-175.54462978 98.22199698 -183.56177294 125.17013689 -182 155 C-180.01324535 178.32757092 -170.05665709 198.32195097 -155 216 C-154.12408203 217.03253906 -154.12408203 217.03253906 -153.23046875 218.0859375 C-135.87183715 236.80689209 -110.51124248 245.72033599 -85.61767578 246.94091797 C-58.51621463 247.55260922 -34.0715193 235.52808063 -14.75 217.1875 C6.12514041 195.46789598 13.58617238 168.40278157 13.28125 138.9453125 C13.04550607 130.26286355 11.6047324 122.26579831 9 114 C8.63777344 112.84757812 8.27554688 111.69515625 7.90234375 110.5078125 C3.45243828 97.92740178 -3.43067792 87.14638135 -12 77 C-12.52980469 76.24976563 -13.05960938 75.49953125 -13.60546875 74.7265625 C-14.06566406 74.15679687 -14.52585937 73.58703125 -15 73 C-15.66 73 -16.32 73 -17 73 C-17 72.34 -17 71.68 -17 71 C-35.90427182 53.23676906 -61.15940257 43.17158869 -87.1796875 43.81640625 C-113.8732238 45.55407413 -137.31324976 56.06751437 -155.82421875 75.4921875 Z " fill="#F5E4E2" transform="translate(2398,415)"/>
<path d="M0 0 C0.97547287 -0.00902847 1.95094574 -0.01805695 2.95597839 -0.02735901 C5.01057926 -0.04176666 7.06522503 -0.05072439 9.11987305 -0.05444336 C12.18557226 -0.06623358 15.24918316 -0.11542547 18.31445312 -0.16601562 C36.73012334 -0.31974054 54.14468239 2.53525585 70.91796875 10.43359375 C71.86542969 10.85447266 72.81289062 11.27535156 73.7890625 11.70898438 C97.28290571 22.33558246 112.20506412 41.14895741 121.67211914 64.53173828 C122.25824348 65.97719189 122.87705856 67.40939365 123.5078125 68.8359375 C124.86070645 72.60429877 125.66197601 76.45637764 126.48046875 80.37109375 C126.65747314 81.20890381 126.83447754 82.04671387 127.0168457 82.90991211 C128.24525653 88.95591529 128.96715744 94.83146857 129.2421875 101 C129.26830577 103.38832006 129.26830577 103.38832006 130.41796875 105.37109375 C130.50617731 106.82000769 130.53161436 108.2729747 130.52539921 109.72455788 C130.52390686 110.64467301 130.52241451 111.56478814 130.52087694 112.51278555 C130.51407315 113.53027927 130.50726936 114.54777299 130.5002594 115.59609985 C130.49703027 116.67178297 130.49380114 117.74746609 130.49047416 118.85574567 C130.47834653 122.48410642 130.45898467 126.11239341 130.43969727 129.74072266 C130.42956004 132.33211606 130.41986577 134.92351123 130.4105835 137.51490784 C130.38985249 143.10631655 130.36542308 148.69769937 130.33850288 154.28908157 C130.2995858 162.37334511 130.26621354 170.45762399 130.23420762 178.54191749 C130.18213274 191.65719499 130.12555486 204.77244906 130.06616211 217.88769531 C130.00846694 230.63019905 129.95288199 243.3727091 129.90014648 256.11523438 C129.89689677 256.90028876 129.89364705 257.68534315 129.89029885 258.49418707 C129.87400951 262.4324564 129.85776178 266.3707259 129.84153473 270.30899549 C129.70679741 302.99639169 129.56393283 335.68374527 129.41796875 368.37109375 C98.72796875 368.37109375 68.03796875 368.37109375 36.41796875 368.37109375 C35.13786352 364.53077807 35.2937056 360.92728618 35.31790161 356.92694092 C35.31979502 355.61824173 35.31979502 355.61824173 35.32172668 354.28310418 C35.32712185 351.34723335 35.33964964 348.41143491 35.35205078 345.47558594 C35.35724258 343.37455861 35.36195099 341.27353004 35.36621094 339.17250061 C35.37616909 334.63811883 35.38902646 330.1037575 35.40393448 325.56938934 C35.42700437 318.37978403 35.44030638 311.19018153 35.45162964 304.00054932 C35.48504791 283.55159961 35.52633615 263.10269013 35.58935547 242.65380859 C35.62405713 231.36696781 35.64775283 220.08015793 35.6595639 208.7932694 C35.66629179 202.82835408 35.67857187 196.8635694 35.70459366 190.89870453 C35.7291516 185.2680389 35.73923583 179.63752093 35.73899841 174.00680351 C35.74138751 171.95882566 35.74881133 169.91084527 35.76212692 167.86290932 C35.91939466 142.58342948 35.30477421 115.54594707 16.5859375 96.5078125 C1.95880177 84.17512944 -20.63219563 82.2779194 -38.82421875 83.6875 C-53.16065155 84.94816479 -65.98144107 88.21027055 -78.58203125 95.37109375 C-79.53045898 95.90911621 -79.53045898 95.90911621 -80.49804688 96.45800781 C-88.96924505 101.32711932 -96.15919463 106.26118899 -102.76171875 113.53515625 C-103.66277344 114.44394531 -103.66277344 114.44394531 -104.58203125 115.37109375 C-105.24203125 115.37109375 -105.90203125 115.37109375 -106.58203125 115.37109375 C-106.82953125 115.92796875 -107.07703125 116.48484375 -107.33203125 117.05859375 C-108.58203125 119.37109375 -108.58203125 119.37109375 -110.62814045 121.4018898 C-113.42305764 125.64914822 -113.13949908 129.20876979 -113.09428406 134.19085693 C-113.10447759 135.68466161 -113.10447759 135.68466161 -113.11487705 137.20864415 C-113.13285018 140.54915064 -113.12236002 143.88896208 -113.11206055 147.22949219 C-113.11915656 149.62267114 -113.12801917 152.01584541 -113.13851929 154.40901184 C-113.15970437 160.23541721 -113.16269656 166.06162951 -113.15793403 171.88806668 C-113.15348369 178.66928868 -113.17239407 185.45038436 -113.19299207 192.2315692 C-113.22919851 204.32576206 -113.24836154 216.41991778 -113.25610352 228.51416016 C-113.26367194 240.25929472 -113.27677808 252.00439521 -113.29907227 263.74951172 C-113.30044296 264.47347262 -113.30181366 265.19743353 -113.3032259 265.94333264 C-113.31834273 273.84124456 -113.33507054 281.73915236 -113.35304737 289.63705826 C-113.35461934 290.330433 -113.35619131 291.02380773 -113.35781092 291.73819382 C-113.37075265 297.44269072 -113.37075265 297.44269072 -113.37682853 300.0516291 C-113.39720598 308.8387344 -113.41034452 317.62580651 -113.41588819 326.41293383 C-113.41970698 331.43992861 -113.42731435 336.46691318 -113.43569565 341.49390221 C-113.43866788 343.83491803 -113.43988911 346.17593679 -113.43928337 348.51695442 C-113.43862153 351.69774923 -113.44392922 354.8784789 -113.45072937 358.05926514 C-113.448979 358.99844213 -113.44722863 359.93761913 -113.44542521 360.90525603 C-113.46802362 367.25708612 -113.46802362 367.25708612 -114.58203125 368.37109375 C-117.46809141 368.47166066 -120.330257 368.5072475 -123.21679688 368.50048828 C-124.12241867 368.5022406 -125.02804047 368.50399292 -125.96110535 368.50579834 C-128.97018318 368.51021829 -131.97920277 368.50727836 -134.98828125 368.50390625 C-137.0695395 368.50457925 -139.15079768 368.50554924 -141.23205566 368.50680542 C-145.60018663 368.50828259 -149.96829718 368.50612723 -154.33642578 368.50146484 C-159.94917678 368.49576755 -165.56187997 368.49904645 -171.17462921 368.50503731 C-175.47414514 368.50864241 -179.77364963 368.50750457 -184.07316589 368.50490952 C-186.14332586 368.50424011 -188.21348685 368.50506915 -190.28364563 368.50738907 C-193.17154711 368.50991477 -196.05937003 368.50607617 -198.94726562 368.50048828 C-199.81171799 368.50251251 -200.67617035 368.50453674 -201.56681824 368.50662231 C-207.46776888 368.48535612 -207.46776888 368.48535612 -208.58203125 367.37109375 C-208.67968913 365.46846798 -208.70574451 363.56215753 -208.70507908 361.65702724 C-208.70707013 360.40798058 -208.70906118 359.15893391 -208.71111256 357.87203735 C-208.70825897 356.46794964 -208.70531336 355.06386212 -208.70228577 353.65977478 C-208.70272134 352.18223301 -208.70359599 350.70469131 -208.70487493 349.22715002 C-208.70712266 345.14763618 -208.70309484 341.06814833 -208.69809687 336.9886378 C-208.69379651 332.59665797 -208.6952385 328.20467971 -208.69599915 323.81269836 C-208.69652465 316.19686979 -208.69337514 308.58104974 -208.68776131 300.96522331 C-208.67964981 289.95388465 -208.67703145 278.94255013 -208.67577332 267.9312088 C-208.67358224 250.06798777 -208.66692066 232.20477129 -208.6574707 214.34155273 C-208.64829801 196.98445661 -208.64121648 179.62736173 -208.63696289 162.27026367 C-208.63670017 161.20118198 -208.63643744 160.13210029 -208.63616676 159.03062218 C-208.63486176 153.66759531 -208.63359805 148.30456843 -208.63235486 142.94154155 C-208.62198052 98.4180558 -208.60436071 53.89457501 -208.58203125 9.37109375 C-205.29455828 7.72735727 -201.64617115 8.23299875 -198.03320312 8.24169922 C-196.70622154 8.23907074 -196.70622154 8.23907074 -195.35243225 8.23638916 C-192.41852882 8.23197601 -189.48468533 8.23490676 -186.55078125 8.23828125 C-184.51818836 8.23760806 -182.48559554 8.2366379 -180.45300293 8.23538208 C-176.1892012 8.23390584 -171.92542039 8.23605732 -167.66162109 8.24072266 C-162.18688034 8.24641989 -156.7121886 8.2431405 -151.23744965 8.23715019 C-147.03911975 8.23354261 -142.84080155 8.23468408 -138.64247131 8.23727798 C-136.62337742 8.23794671 -134.60428248 8.23712073 -132.58518982 8.23479843 C-129.76705093 8.2322687 -126.94899226 8.23611707 -124.13085938 8.24169922 C-123.29027481 8.23967499 -122.44969025 8.23765076 -121.58363342 8.23556519 C-115.81055917 8.25682979 -115.81055917 8.25682979 -113.58203125 9.37109375 C-113.58203125 23.89109375 -113.58203125 38.41109375 -113.58203125 53.37109375 C-108.00394099 48.74190496 -108.00394099 48.74190496 -103.58203125 43.68359375 C-98.27622529 37.42946501 -91.26161399 33.02929811 -84.58203125 28.37109375 C-83.74027344 27.76910156 -82.89851563 27.16710937 -82.03125 26.546875 C-64.66602711 14.45153694 -42.30921975 6.37022188 -21.58203125 2.37109375 C-20.80373459 2.21037888 -20.02543793 2.049664 -19.22355652 1.88407898 C-12.76314922 0.61051252 -6.57744725 0.03909313 0 0 Z " fill="#F5E4E2" transform="translate(1938.58203125,369.62890625)"/>
<path d="M0 0 C0.86445236 0.00202423 1.72890472 0.00404846 2.61955261 0.00613403 C3.52517441 0.00438171 4.4307962 0.00262939 5.36386108 0.00082397 C8.37293892 -0.00359597 11.3819585 -0.00065605 14.39103699 0.00271606 C16.47229524 0.00204307 18.55355342 0.00107308 20.6348114 -0.00018311 C25.00294236 -0.00166027 29.37105292 0.00049508 33.73918152 0.00515747 C39.35193252 0.01085477 44.96463571 0.00757586 50.57738495 0.00158501 C54.87690087 -0.0020201 59.17640537 -0.00088225 63.47592163 0.0017128 C65.5460816 0.00238221 67.61624259 0.00155316 69.68640137 -0.00076675 C72.57430285 -0.00329245 75.46212576 0.00054614 78.35002136 0.00613403 C79.21447372 0.0041098 80.07892609 0.00208557 80.96957397 0 C86.87052462 0.02126619 86.87052462 0.02126619 87.98478699 1.13552856 C88.08244487 3.03815433 88.10850025 4.94446478 88.10783482 6.84959507 C88.10982586 8.09864173 88.11181691 9.3476884 88.1138683 10.63458496 C88.1110147 12.03867267 88.10806909 13.44276019 88.1050415 14.84684753 C88.10547708 16.32438931 88.10635172 17.80193101 88.10763067 19.27947229 C88.10987839 23.35898614 88.10585058 27.43847398 88.10085261 31.51798451 C88.09655225 35.90996435 88.09799424 40.3019426 88.09875488 44.69392395 C88.09928038 52.30975253 88.09613088 59.92557257 88.09051704 67.541399 C88.08240555 78.55273767 88.07978718 89.56407219 88.07852905 100.57541352 C88.07633798 118.43863455 88.0696764 136.30185102 88.06022644 154.16506958 C88.05105375 171.5221657 88.04397222 188.87926059 88.03971863 206.23635864 C88.0394559 207.30544034 88.03919318 208.37452203 88.0389225 209.47600014 C88.0376175 214.839027 88.03635378 220.20205388 88.03511059 225.56508076 C88.02473626 270.08856652 88.00711645 314.61204731 87.98478699 359.13552856 C83.39694064 361.13575732 79.42947548 361.41966342 74.47843933 361.39431763 C73.63396744 361.39782227 72.78949554 361.4013269 71.91943359 361.40493774 C69.13644622 361.41371913 66.35371431 361.40791966 63.57072449 361.40115356 C61.63449556 361.40250099 59.69826696 361.40444218 57.76203918 361.4069519 C53.70865144 361.40989808 49.65535196 361.40562083 45.60197449 361.39627075 C40.40200996 361.38486129 35.20225155 361.39144835 30.00229454 361.40341568 C26.00636739 361.41063493 22.01048931 361.40834631 18.0145607 361.4031601 C16.09677226 361.40182457 14.1789794 361.40346793 12.26119614 361.4081192 C9.58479208 361.41318713 6.90872451 361.40547114 4.23234558 361.39431763 C3.43747238 361.39836609 2.64259918 361.40241455 1.82363892 361.40658569 C-1.99068294 361.3770747 -3.76358671 361.30327944 -7.01521301 359.13552856 C-7.38895917 356.59277576 -7.38895917 356.59277576 -7.38714981 353.30120754 C-7.39373966 352.05078653 -7.4003295 350.80036551 -7.40711904 349.51205295 C-7.3992498 348.11159517 -7.39110192 346.71113893 -7.38270569 345.3106842 C-7.38472826 343.83298995 -7.38806553 342.355297 -7.39261127 340.87760836 C-7.40129572 336.80221227 -7.39116035 332.72704247 -7.37806892 328.65166605 C-7.36720743 324.2624063 -7.37357801 319.87316834 -7.37785339 315.48390198 C-7.3834982 306.87977924 -7.37315053 298.2757453 -7.35756543 289.67163771 C-7.34006559 279.66222768 -7.33860702 269.65283512 -7.33794984 259.64341218 C-7.33626025 241.79074878 -7.32042621 223.93812596 -7.29646301 206.08547974 C-7.27320005 188.74205183 -7.25903801 171.39864968 -7.25544739 154.0552063 C-7.25522462 152.98695273 -7.25500185 151.91869917 -7.25477234 150.81807428 C-7.25432975 148.66621928 -7.25388773 146.51436428 -7.25344627 144.36250928 C-7.2532267 143.3011427 -7.25300713 142.23977612 -7.25278091 141.14624691 C-7.25245693 139.55834689 -7.25245693 139.55834689 -7.25212641 137.93836808 C-7.24842947 121.43799599 -7.23706977 104.93762809 -7.22465052 88.43726058 C-7.22020854 82.44621641 -7.21677306 76.45517264 -7.21402839 70.46412747 C-7.20960394 60.96314936 -7.20185904 51.46218666 -7.18725398 41.96121829 C-7.180628 37.61688109 -7.17557803 33.27255756 -7.17479324 28.92821503 C-7.17401043 24.95783666 -7.16864442 20.98749293 -7.15947375 17.01712532 C-7.15695072 15.57437938 -7.15613844 14.13162931 -7.15713254 12.68888151 C-7.15821645 10.74058765 -7.15263819 8.79229337 -7.14664078 6.84400845 C-7.14539428 5.75795329 -7.14414778 4.67189813 -7.14286351 3.5529322 C-6.8930758 -1.17746623 -4.07500049 0.01468573 0 0 Z " fill="#F5E4E2" transform="translate(1549.0152130126953,378.8644714355469)"/>
<path d="M0 0 C0.96035156 0.37898437 1.92070313 0.75796875 2.91015625 1.1484375 C17.00136992 7.43948257 26.20348572 17.95718966 32.25 32 C37.56743628 46.26845402 37.73894248 61.02634263 31.67578125 75.06640625 C25.3131622 88.40953649 16.10712095 99.42541188 2 105 C1.01 105.40992188 1.01 105.40992188 0 105.828125 C-14.91029979 111.41948742 -29.79147788 110.84182656 -44.27978516 104.53466797 C-58.87966424 97.5521171 -68.55806955 86.21266921 -74 71 C-78.49405359 55.72264141 -77.25136233 40.0998712 -70 26 C-63.40397871 14.75293805 -54.16804049 5.8458375 -42 1 C-41.04738281 0.608125 -40.09476563 0.21625 -39.11328125 -0.1875 C-26.76421236 -4.6498988 -12.27643666 -4.89562619 0 0 Z " fill="#F5E4E2" transform="translate(1610,222)"/>
</svg>
