<?xml version="1.0" encoding="UTF-8"?>
<svg version="1.1" xmlns="http://www.w3.org/2000/svg" width="1020" height="1021">
<path d="M0 0 C0.75185894 -0.00382555 1.50371788 -0.00765109 2.27836043 -0.01159257 C4.77537335 -0.02183812 7.27215268 -0.01794665 9.7691803 -0.01396179 C11.56854463 -0.01831292 13.3679071 -0.0234974 15.16726685 -0.02944946 C20.03916385 -0.04280681 24.91098311 -0.04342183 29.78289485 -0.04088616 C33.85590726 -0.03981435 37.92890407 -0.04470514 42.00191313 -0.04949158 C51.61314953 -0.06057524 61.22434685 -0.06103044 70.83558655 -0.05497742 C80.73879092 -0.04893629 90.64185326 -0.06125482 100.5450334 -0.08254749 C109.05992376 -0.10017957 117.57476898 -0.10616235 126.08967692 -0.10290974 C131.16984933 -0.10109949 136.24992039 -0.10370743 141.33007622 -0.11762428 C146.10802118 -0.13022434 150.88574508 -0.12823791 155.66368675 -0.11521339 C157.41276373 -0.11285291 159.16185637 -0.11556332 160.91091537 -0.12383652 C180.757881 -0.2109143 180.757881 -0.2109143 187.26942444 4.97944641 C187.71286194 5.56725891 188.15629944 6.15507141 188.61317444 6.76069641 C189.07723694 7.34850891 189.54129944 7.93632141 190.01942444 8.54194641 C193.06229688 13.3236031 192.77176933 18.82624253 192.11317444 24.26069641 C190.61481028 28.9153737 188.55127095 33.23780686 186.42567444 37.63569641 C185.83173964 38.90467958 185.24006965 40.17472494 184.65052795 41.445755 C183.42640015 44.08031375 182.19276216 46.71008537 180.95204163 49.33686829 C178.06081555 55.47896908 175.31371221 61.68511581 172.55067444 67.88569641 C171.4663704 70.30511579 170.38173626 72.72438725 169.29676819 75.14350891 C166.2224206 82.01008155 163.16544741 88.88428823 160.11317444 95.76069641 C153.29547775 111.12015666 146.41582423 126.4517379 139.53211975 141.7816925 C133.03025924 156.26200429 126.55460357 170.75341118 120.11317444 185.26069641 C112.6333897 202.10654979 105.10069793 218.92807853 97.54969788 235.74214172 C90.69678282 251.00448334 83.8759339 266.28047372 77.08726501 281.57148743 C72.00154515 293.0259235 66.88955177 304.46816412 61.75672913 315.90156555 C58.27524718 323.65963627 54.81246502 331.42576383 51.36317444 339.19819641 C46.48624062 350.18584879 41.58570863 361.16280314 36.67567444 372.13569641 C36.31176605 372.948974 35.94785767 373.76225159 35.57292175 374.60017395 C31.90477643 382.79710353 28.23437389 390.99301666 24.55848694 399.18647766 C24.28308578 399.80035339 24.00768463 400.41422913 23.72393799 401.04670715 C23.45334061 401.64986755 23.18274323 402.25302795 22.90394592 402.87446594 C18.28875587 413.16183492 13.68760573 423.45513269 9.11317444 433.76069641 C5.06845607 442.87288988 1.00629976 451.97702485 -3.07432556 461.07319641 C-3.60630554 462.25905334 -4.13828552 463.44491028 -4.68638611 464.66670227 C-4.95825241 465.27271774 -5.23011871 465.87873322 -5.51022339 466.50311279 C-5.78661148 467.11920914 -6.06299957 467.73530548 -6.34776306 468.37007141 C-6.76905235 469.30914085 -6.76905235 469.30914085 -7.19885254 470.2671814 C-10.86978471 478.45068036 -14.53554578 486.6364931 -18.19932556 494.82319641 C-18.55853088 495.62578888 -18.91773621 496.42838135 -19.28782654 497.2552948 C-24.81561933 509.60849375 -30.31555387 521.97386599 -35.80433655 534.34443665 C-41.59073877 547.38184838 -47.43593185 560.39233855 -53.29655457 573.39653015 C-58.43751018 584.80445016 -63.55202821 596.22318785 -68.62437439 607.66181946 C-72.70609414 616.86422933 -76.81579862 626.05395904 -80.94248962 635.23628235 C-83.49513143 640.91717672 -86.04132788 646.60049439 -88.55935669 652.29682922 C-89.73622473 654.95823877 -90.91712179 657.61785204 -92.09828186 660.27735901 C-92.65861706 661.54205647 -93.21699873 662.80762156 -93.77326965 664.07411194 C-101.12123252 680.79961105 -101.12123252 680.79961105 -108.88682556 685.26069641 C-112.39973883 686.4316675 -115.56238572 686.4088223 -119.21707153 686.40786743 C-119.96944747 686.41154412 -120.7218234 686.41522081 -121.49699861 686.41900891 C-124.02562943 686.43004816 -126.55421916 686.43389001 -129.08287048 686.43769836 C-130.8929711 686.44396287 -132.70307042 686.45060966 -134.51316833 686.45761108 C-140.46453454 686.47865658 -146.41590102 686.48901437 -152.36729431 686.49897766 C-154.4160698 686.50302512 -156.46484516 686.50714204 -158.51362038 686.51132774 C-168.13942186 686.53038099 -177.76521568 686.54461138 -187.3910324 686.55293971 C-198.50132184 686.56271112 -209.611412 686.58902762 -220.72163123 686.62944061 C-229.30943317 686.659606 -237.89717801 686.67440902 -246.4850319 686.67772073 C-251.61392289 686.68007086 -256.74260102 686.68902657 -261.87143517 686.7141819 C-266.69858624 686.73747475 -271.52538448 686.74169093 -276.35257721 686.73142052 C-278.12143185 686.73092533 -279.89030393 686.73724069 -281.6591053 686.75097656 C-299.94326427 686.88498603 -299.94326427 686.88498603 -306.76182556 680.50679016 C-310.29844591 674.82118175 -310.73191464 669.84958811 -309.88682556 663.26069641 C-308.48285331 658.69998257 -306.52686546 654.45578854 -304.51182556 650.13569641 C-303.93172581 648.85191079 -303.35383095 647.56712699 -302.77793884 646.28144836 C-301.51634114 643.47018411 -300.2446146 640.66379273 -298.96690369 637.8598175 C-296.73536596 632.9459438 -294.56491623 628.00606577 -292.40245056 623.06147766 C-292.02221237 622.19204529 -291.64197418 621.32261292 -291.25021362 620.42683411 C-290.47626168 618.65653128 -289.70245346 616.88616562 -288.92878723 615.11573792 C-287.00012564 610.70703712 -285.06263933 606.30222291 -283.12510681 601.89741516 C-282.75527176 601.05642273 -282.38543671 600.2154303 -282.00439453 599.34895325 C-281.29291176 597.73111314 -280.58138112 596.11329408 -279.86979675 594.49549866 C-278.97610297 592.46367016 -278.08255117 590.4317793 -277.18907166 588.39985657 C-273.21893316 579.37167686 -269.24546148 570.34496765 -265.26963806 561.31929016 C-259.98077727 549.30985217 -254.71012813 537.29256845 -249.4535675 525.26896667 C-244.27642595 513.42769893 -239.08394074 501.59320995 -233.88682556 489.76069641 C-228.54471542 477.5978551 -223.20809072 465.43267237 -217.88682556 453.26069641 C-210.74117099 436.91650784 -203.56937407 420.58382383 -196.39620972 404.25169373 C-193.63838918 397.97248753 -190.88149932 391.69287334 -188.12510681 385.41304016 C-175.06385488 355.65640502 -175.06385488 355.65640502 -169.38682556 342.76069641 C-167.55308227 338.59421004 -165.71979938 334.42752136 -163.88682556 330.26069641 C-163.5699176 329.54029175 -163.25300964 328.81988708 -162.92649841 328.07765198 C-160.28690911 322.07676641 -157.64874244 316.07525678 -155.01182556 310.07319641 C-154.62210571 309.18614014 -154.23238586 308.29908386 -153.83085632 307.38514709 C-148.8591538 296.06571258 -143.91438555 284.73523884 -139.01182556 273.38569641 C-134.65038934 263.29210607 -130.22365896 253.23021962 -125.74546814 243.1879425 C-121.19586291 232.9771766 -116.6923147 222.7464817 -112.19932556 212.51069641 C-111.81595032 211.63736664 -111.43257507 210.76403687 -111.0375824 209.86424255 C-105.13478906 196.41413876 -99.26375055 182.95037577 -93.40333557 169.48176575 C-87.38019037 155.64328298 -81.28937508 141.83538492 -75.18009949 128.03474426 C-69.52238332 115.25193404 -63.90189791 102.45367633 -58.32432556 89.63569641 C-50.54051499 71.75141331 -42.74187895 53.87385822 -34.86508179 36.0302887 C-32.80168324 31.35215631 -30.76330122 26.6643213 -28.74229431 21.96772766 C-27.87432338 19.98182381 -27.00588866 17.99612255 -26.13682556 16.01069641 C-25.77919128 15.16047913 -25.42155701 14.31026184 -25.05308533 13.4342804 C-22.7766807 8.29787491 -20.65838504 5.326481 -15.88682556 2.26069641 C-10.51297385 0.64734894 -5.61759347 -0.03092634 0 0 Z " fill="#E63C2A" transform="translate(496.88682556152344,-0.2606964111328125)"/>
<path d="M0 0 C0.78489549 -0.00367669 1.56979099 -0.00735338 2.3784712 -0.01114148 C5.02309803 -0.02220313 7.66768561 -0.02602637 10.31233215 -0.02983093 C12.20272446 -0.03609377 14.09311554 -0.0427404 15.98350525 -0.04974365 C21.13038261 -0.0671714 26.27725066 -0.07771049 31.42415023 -0.08594918 C34.63872868 -0.09109613 37.85330423 -0.09717203 41.06788063 -0.10346031 C51.12243417 -0.1225183 61.17698035 -0.13674751 71.23154849 -0.14507228 C82.84331859 -0.15484456 94.45489806 -0.18116136 106.06660098 -0.22157317 C115.03737876 -0.25172378 124.00810187 -0.2665402 132.97892934 -0.26985329 C138.33863066 -0.2722052 143.69812847 -0.28118383 149.0577755 -0.30631447 C154.10159061 -0.32958131 159.14506803 -0.33383394 164.18892288 -0.32355309 C166.03882406 -0.32305726 167.88874177 -0.32939145 169.73859215 -0.34310913 C172.26753867 -0.36081115 174.79527111 -0.35373068 177.32421875 -0.34057617 C178.05341764 -0.35154542 178.78261653 -0.36251466 179.53391236 -0.37381631 C185.66408852 -0.29702443 189.61417668 1.72890629 194.25691223 5.64717102 C198.42574673 11.03717926 198.20846396 16.575715 197.47956848 23.14717102 C196.3101375 27.16500421 194.61304657 30.82374716 192.79206848 34.58467102 C191.77115429 36.79557118 190.75032427 39.00651022 189.72956848 41.21748352 C189.19331848 42.35733704 188.65706848 43.49719055 188.10456848 44.67158508 C185.42585783 50.40087066 182.86741149 56.18339076 180.29206848 61.95967102 C179.4752466 63.77935295 178.65841351 65.59902997 177.84082031 67.41836548 C173.69323898 76.64923958 169.58553971 85.89773237 165.47956848 95.14717102 C158.00015869 111.99318944 150.46709089 128.81455554 142.91609192 145.62861633 C136.06317686 160.89095795 129.24232794 176.16694833 122.45365906 191.45796204 C117.37086666 202.90580466 112.26201766 214.34155073 107.13191223 225.76826477 C103.56334538 233.7200589 100.01514991 241.68066001 96.47956848 249.64717102 C92.26848034 259.13449258 88.03925577 268.61346964 83.79206848 278.08467102 C83.51605804 278.70017822 83.24004761 279.31568542 82.95567322 279.94984436 C79.97107004 286.60433327 76.98122366 293.25643117 73.98396301 299.90522766 C67.4868477 314.31930843 61.07938547 328.77329384 54.67048645 343.22676086 C46.61230672 361.39921551 38.51005441 379.55074722 30.34074402 397.67353821 C24.91485631 409.71198553 19.52266487 421.76478967 14.16706848 433.83467102 C6.7934317 450.45227676 -0.63601248 467.04413925 -8.08390808 483.62861633 C-14.52660243 497.97734258 -20.94682381 512.33567616 -27.33293152 526.70967102 C-27.66731232 527.4622821 -28.00169312 528.21489319 -28.34620667 528.99031067 C-31.7615772 536.67825161 -35.17471454 544.36718115 -38.58535767 552.05722046 C-45.46667335 567.57122859 -52.37227402 583.07289167 -59.37446594 598.53276062 C-63.80959436 608.32714103 -68.19849358 618.14132384 -72.56007385 627.96867371 C-73.57402507 630.25211351 -74.58960393 632.53482272 -75.6056366 634.81733704 C-78.53677364 641.40538549 -81.46101632 647.99578255 -84.33691406 654.60816956 C-85.51077101 657.30365355 -86.69326063 659.99530022 -87.87709045 662.68641663 C-88.68395487 664.52989065 -89.47848724 666.37874692 -90.27262878 668.22773743 C-93.87702929 676.40326782 -97.03503915 681.56340955 -105.52043152 685.14717102 C-108.19052807 685.4284778 -110.62288505 685.56172595 -113.28736877 685.5415802 C-114.05047509 685.5476713 -114.8135814 685.55376241 -115.59981215 685.56003809 C-118.14690986 685.57663529 -120.69350586 685.57189706 -123.24064636 685.5670929 C-125.0708976 685.57443515 -126.90114421 685.58302184 -128.73138428 685.59275818 C-133.69632487 685.61496673 -138.66109946 685.61790518 -143.6260829 685.61601067 C-147.77365771 685.61589093 -151.92119739 685.62445632 -156.06876242 685.63278818 C-165.85541035 685.65202 -175.64197299 685.65490691 -185.42863464 685.64814758 C-195.51822456 685.64150714 -205.60744886 685.66437187 -215.69696462 685.70146132 C-224.36552548 685.73216876 -233.0339688 685.74351719 -241.70258296 685.7396245 C-246.87728236 685.73755804 -252.05169725 685.74302041 -257.22634506 685.76751709 C-262.09384721 685.78979876 -266.96075543 685.7878945 -271.82826042 685.76758957 C-273.61162338 685.76418202 -275.39502643 685.76925765 -277.17833519 685.78357315 C-293.42073861 685.90493176 -293.42073861 685.90493176 -299.15836525 681.58550262 C-303.75936018 676.72688703 -304.77999344 672.07539161 -304.72654724 665.56010437 C-304.4006004 661.744345 -303.07081975 658.6172202 -301.49699402 655.15888977 C-301.02418503 654.06806343 -301.02418503 654.06806343 -300.54182434 652.9552002 C-299.5503857 650.67857408 -298.53664456 648.41282935 -297.52043152 646.14717102 C-296.89648251 644.727951 -296.27373678 643.30820129 -295.65226746 641.88789368 C-294.08429454 638.31781903 -292.49583515 634.7572892 -290.8999176 631.19963074 C-289.13575291 627.26562119 -287.38062225 623.32758709 -285.62590027 619.38935852 C-285.09737206 618.20336311 -285.09737206 618.20336311 -284.5581665 616.9934082 C-281.39193327 609.87829237 -278.29046891 602.73647478 -275.20793152 595.58467102 C-269.98293214 583.47161222 -264.67179569 571.39795759 -259.33293152 559.33467102 C-252.87387678 544.73990203 -246.43209345 530.13782882 -240.02043152 515.52217102 C-239.64245422 514.66062408 -239.26447693 513.79907715 -238.87504578 512.91142273 C-237.4113318 509.57501586 -235.94767826 506.2385825 -234.48420715 502.90206909 C-231.52169685 496.14841751 -228.55388217 489.39711454 -225.58293152 482.64717102 C-225.1541571 481.67272034 -224.72538269 480.69826965 -224.28361511 479.69429016 C-222.14742342 474.84031934 -220.00897643 469.98735331 -217.86808777 465.13545227 C-212.9621293 454.0106234 -208.09452202 442.87025485 -203.27043152 431.70967102 C-198.27517733 420.15359219 -193.21726928 408.62625057 -188.12788391 397.11134338 C-183.63438278 386.94453372 -179.15868406 376.77026883 -174.70793152 366.58467102 C-163.7097276 341.41977058 -152.672219 316.27207271 -141.58293152 291.14717102 C-141.2731839 290.44533691 -140.96343628 289.74350281 -140.64430237 289.020401 C-138.10296519 283.26233261 -135.56128784 277.5044144 -133.01896667 271.7467804 C-127.72490473 259.75347633 -122.47268827 247.74306774 -117.27043152 235.70967102 C-112.66841251 225.06513367 -108.02034591 214.44187746 -103.33293152 203.83467102 C-103.02454346 203.13676453 -102.7161554 202.43885803 -102.39842224 201.71980286 C-102.08693237 201.01488708 -101.7754425 200.30997131 -101.45451355 199.58369446 C-100.81371064 198.13350584 -100.17292306 196.68331045 -99.53215027 195.23310852 C-99.20934082 194.50253235 -98.88653137 193.77195618 -98.55393982 193.01924133 C-94.57217547 184.00477551 -90.60738436 174.9828585 -86.64543152 165.95967102 C-86.07834473 164.6682872 -86.07834473 164.6682872 -85.49980164 163.35081482 C-79.65407713 150.03605404 -73.84111274 136.70723745 -68.03913879 123.37336731 C-61.9493633 109.38256038 -55.79400324 95.42130879 -49.61961365 81.46766663 C-44.67107056 70.28409469 -39.73144243 59.09689216 -34.83137512 47.89198303 C-33.97231835 45.93002834 -33.11035281 43.96937487 -32.24772644 42.00898743 C-29.66884129 36.13820365 -27.13821559 30.25412839 -24.71965027 24.31513977 C-24.28144958 23.25649719 -23.8432489 22.19785461 -23.39176941 21.10713196 C-22.59779391 19.18168306 -21.82036463 17.24926748 -21.06510925 15.30830383 C-16.92664606 5.34572228 -10.77884581 -0.00268415 0 0 Z " fill="#E63C2A" transform="translate(635.5204315185547,335.8528289794922)"/>
</svg>
